<?xml version="1.0" encoding="UTF-8"?>
<svg version="1.1" xmlns="http://www.w3.org/2000/svg" width="1440" height="878">
<path d="M0 0 C475.2 0 950.4 0 1440 0 C1440 289.74 1440 579.48 1440 878 C964.8 878 489.6 878 0 878 C0 588.26 0 298.52 0 0 Z " fill="#202766" transform="translate(0,0)"/>
<path d="M0 0 C1.02337497 -0.00551503 1.02337497 -0.00551503 2.06742418 -0.01114148 C4.35878964 -0.02217453 6.65010975 -0.02602154 8.9414978 -0.02983093 C10.58249048 -0.03609598 12.22348173 -0.04274282 13.86447144 -0.04974365 C19.25911471 -0.07078541 24.65375826 -0.08114766 30.0484314 -0.09111023 C31.90649811 -0.09515805 33.76456467 -0.09927498 35.62263107 -0.10346031 C44.35409161 -0.12251398 53.08554368 -0.1367434 61.81702101 -0.14507228 C71.88929048 -0.15483908 81.96133985 -0.1811433 92.03353179 -0.22157317 C99.82220539 -0.2517616 107.61081602 -0.26654383 115.39954698 -0.26985329 C120.04949035 -0.27220111 124.69919864 -0.28112623 129.34907913 -0.30631447 C133.7272795 -0.32964728 138.1050909 -0.33380758 142.4833374 -0.32355309 C144.08567984 -0.32305884 145.68804176 -0.32934633 147.29032516 -0.34310913 C157.2284883 -0.4236598 165.28821752 -0.10346792 173.1343689 6.52217102 C178.59430109 13.07408966 180.69251271 17.77758109 180.6031189 26.22529602 C179.92577393 33.26215758 176.74125041 38.65304976 171.3218689 43.14717102 C168.7593689 44.83467102 168.7593689 44.83467102 166.3218689 46.14717102 C165.75273396 46.49872568 165.18359901 46.85028034 164.59721756 47.21248817 C161.4832092 48.49168122 158.84354483 48.40544404 155.47879028 48.41459656 C154.79089676 48.41912767 154.10300324 48.42365878 153.39426446 48.4283272 C151.08979083 48.4409849 148.78555313 48.43934996 146.48104858 48.43769836 C144.82843217 48.44368287 143.17581855 48.45048824 141.52320862 48.45805359 C137.03336717 48.47573129 132.54360194 48.48040979 128.05372906 48.48168516 C125.24751429 48.48310661 122.4413189 48.48737614 119.63510895 48.4926796 C109.84171824 48.51118752 100.04838199 48.51934948 90.25497437 48.51777649 C81.13227323 48.5165757 72.00980892 48.53766373 62.88716769 48.56926382 C55.05092214 48.59543862 47.21475386 48.60614324 39.37846494 48.60486567 C34.7000784 48.60435628 30.02190219 48.6100264 25.34355927 48.63122177 C20.94070784 48.6506238 16.5382669 48.65071528 12.13540077 48.63618851 C10.52296917 48.63410156 8.91051175 48.63879453 7.29812431 48.65090942 C-2.63090116 48.72065641 -9.69841341 48.46292635 -17.4906311 41.70967102 C-19.56834967 39.27577213 -21.1637487 36.95959549 -22.6781311 34.14717102 C-23.02746704 33.55549133 -23.37680298 32.96381165 -23.73672485 32.35420227 C-25.87746959 27.33544385 -25.51772056 20.9200854 -23.95547485 15.76045227 C-20.82969052 9.11657868 -15.89320661 4.93026046 -9.6781311 1.14717102 C-6.25264056 0.00534084 -3.61404964 0.01261363 0 0 Z " fill="#BB1640" transform="translate(1119.6781311035156,23.852828979492188)"/>
<path d="M0 0 C1.4540625 0.7425 1.4540625 0.7425 2.9375 1.5 C2.9375 2.82 2.9375 4.14 2.9375 5.5 C-1.18159634 8.24606423 -5.07141501 8.17435469 -9.93359375 8.64453125 C-13.85944564 9.7178915 -14.99042057 11.04988716 -17.0625 14.5 C-17.86428793 18.45009283 -17.33573969 22.68028094 -16.0625 26.5 C-18.3725 27.16 -20.6825 27.82 -23.0625 28.5 C-23.0625 29.16 -23.0625 29.82 -23.0625 30.5 C-23.7225 30.5 -24.3825 30.5 -25.0625 30.5 C-28.4537753 24.14135882 -29.57409945 17.49113025 -27.44140625 10.44921875 C-24.97395191 5.50334361 -20.70304084 2.33959173 -16.0625 -0.5 C-10.66999825 -2.29750058 -5.25003896 -2.26681926 0 0 Z " fill="#EBEEF3" transform="translate(170.0625,29.5)"/>
<path d="M0 0 C3.04347745 4.53457713 2.57973104 9.76792736 2 15 C0.02262672 21.67363483 -3.96582069 25.53274442 -9.8203125 29.11328125 C-14.65379839 31.07959182 -21.1734311 30.90220742 -26.1171875 29.32421875 C-27.75 28.5 -27.75 28.5 -30 27 C-30 26.01 -30 25.02 -30 24 C-26.09227281 21.67648654 -22.89511195 20.75430608 -18.375 20.125 C-14.79783424 19.51663848 -13.24042816 19.18451464 -10.3125 16.9375 C-8.49370688 12.86686779 -8.70466899 9.38074333 -9 5 C-9 4.01 -9 3.02 -9 2 C-3.375 -1.125 -3.375 -1.125 0 0 Z " fill="#E7EBEF" transform="translate(180,38)"/>
<path d="M0 0 C3.63 0 7.26 0 11 0 C11.9897456 4.94872799 12.14229963 8.1769571 11 13 C10 14 10 14 7.71484375 14.09765625 C5.14322917 14.06510417 2.57161458 14.03255208 0 14 C0 9.38 0 4.76 0 0 Z " fill="#C9D5E5" transform="translate(184,41)"/>
<path d="M0 0 C4.24529056 0.39308246 7.44009487 1.68426339 11.375 3.3125 C10.715 3.9725 10.055 4.6325 9.375 5.3125 C8.97735737 7.30071313 8.63724651 9.30194339 8.375 11.3125 C7.715 11.3125 7.055 11.3125 6.375 11.3125 C6.045 10.6525 5.715 9.9925 5.375 9.3125 C4.715 9.9725 4.055 10.6325 3.375 11.3125 C0.375 11.5625 0.375 11.5625 -2.625 11.3125 C-4.625 9.3125 -4.625 9.3125 -4.875 5.8125 C-4.57880437 1.66576113 -4.21331284 0.50158486 0 0 Z " fill="#BE1E47" transform="translate(1194.625,41.6875)"/>
<path d="M0 0 C1.32 0 2.64 0 4 0 C4 2.97 4 5.94 4 9 C4.99 9 5.98 9 7 9 C7 6.03 7 3.06 7 0 C8.65 0 10.3 0 12 0 C12.08121924 1.60332791 12.13929134 3.20784026 12.1875 4.8125 C12.22230469 5.70582031 12.25710937 6.59914063 12.29296875 7.51953125 C12 10 12 10 10.7109375 11.8046875 C7.89858602 13.769481 5.30851882 13.30077444 2 13 C0 11 0 11 -0.1953125 8.3984375 C-0.17210937 7.40070312 -0.14890625 6.40296875 -0.125 5.375 C-0.10695312 4.37210938 -0.08890625 3.36921875 -0.0703125 2.3359375 C-0.04710937 1.56507812 -0.02390625 0.79421875 0 0 Z " fill="#DBE1E9" transform="translate(211,41)"/>
<path d="M0 0 C2.05078125 0.03255208 4.1015625 0.06510417 6.15234375 0.09765625 C6.48234375 1.41765625 6.81234375 2.73765625 7.15234375 4.09765625 C5.50234375 4.09765625 3.85234375 4.09765625 2.15234375 4.09765625 C4.13234375 5.41765625 6.11234375 6.73765625 8.15234375 8.09765625 C7.27734375 11.97265625 7.27734375 11.97265625 6.15234375 13.09765625 C3.48175524 13.23880786 0.82802137 13.14012732 -1.84765625 13.09765625 C-2.17765625 11.77765625 -2.50765625 10.45765625 -2.84765625 9.09765625 C-1.19765625 9.09765625 0.45234375 9.09765625 2.15234375 9.09765625 C1.32734375 8.70578125 0.50234375 8.31390625 -0.34765625 7.91015625 C-1.17265625 7.31203125 -1.99765625 6.71390625 -2.84765625 6.09765625 C-3.22265625 3.47265625 -3.22265625 3.47265625 -2.84765625 1.09765625 C-1.84765625 0.09765625 -1.84765625 0.09765625 0 0 Z " fill="#DEE2E9" transform="translate(267.84765625,40.90234375)"/>
<path d="M0 0 C2.97 0 5.94 0 9 0 C9 0.99 9 1.98 9 3 C7.68 3 6.36 3 5 3 C5 3.66 5 4.32 5 5 C6.32 5 7.64 5 9 5 C9 5.99 9 6.98 9 8 C7.68 8 6.36 8 5 8 C5 8.66 5 9.32 5 10 C6.32 10 7.64 10 9 10 C9 10.99 9 11.98 9 13 C6.03 13 3.06 13 0 13 C0 8.71 0 4.42 0 0 Z " fill="#DFE4EB" transform="translate(226,41)"/>
<path d="M0 0 C3.63 0 7.26 0 11 0 C11 0.99 11 1.98 11 3 C10.01 3 9.02 3 8 3 C8 6.63 8 10.26 8 14 C6.35 14 4.7 14 3 14 C3 10.37 3 6.74 3 3 C2.01 3 1.02 3 0 3 C0 2.01 0 1.02 0 0 Z " fill="#D1D9E6" transform="translate(243,41)"/>
<path d="M0 0 C1.65 0 3.3 0 5 0 C5 3.3 5 6.6 5 10 C6.32 10 7.64 10 9 10 C9 11.32 9 12.64 9 14 C6.03 14 3.06 14 0 14 C0 9.38 0 4.76 0 0 Z " fill="#C3D0E3" transform="translate(199,41)"/>
<path d="M0 0 C1.65 0 3.3 0 5 0 C5 4.62 5 9.24 5 14 C3.35 14 1.7 14 0 14 C0 9.38 0 4.76 0 0 Z " fill="#C4D0E1" transform="translate(257,41)"/>
<path d="M0 0 C0.66 0 1.32 0 2 0 C2 3.96 2 7.92 2 12 C-0.33294775 12.04241723 -2.66702567 12.04092937 -5 12 C-6 11 -6 11 -6.125 8 C-6 5 -6 5 -5 4 C-3.33382885 3.95936168 -1.66611905 3.957279 0 4 C0 2.68 0 1.36 0 0 Z " fill="#E8B1BF" transform="translate(1273,41)"/>
<path d="M0 0 C0.66 0 1.32 0 2 0 C2 3.63 2 7.26 2 11 C-0.875 11.125 -0.875 11.125 -4 11 C-4.66 10.34 -5.32 9.68 -6 9 C-5.625 5.875 -5.625 5.875 -5 3 C-4.360625 2.87625 -3.72125 2.7525 -3.0625 2.625 C-2.0415625 2.315625 -2.0415625 2.315625 -1 2 C-0.67 1.34 -0.34 0.68 0 0 Z " fill="#E9B4C1" transform="translate(1222,42)"/>
<path d="M0 0 C2.5 0.125 2.5 0.125 3.5 1.125 C3.625 4.125 3.625 4.125 3.5 7.125 C2.5 8.125 2.5 8.125 0.0625 8.3125 C-2.5 8.125 -2.5 8.125 -4.5 6.125 C-3.77607362 0.18880368 -3.77607362 0.18880368 0 0 Z " fill="#ECBDC9" transform="translate(1164.5,44.875)"/>
<path d="M0 0 C0.94875 0.04125 1.8975 0.0825 2.875 0.125 C2.875 1.115 2.875 2.105 2.875 3.125 C1.225 2.795 -0.425 2.465 -2.125 2.125 C-2.125 4.105 -2.125 6.085 -2.125 8.125 C-0.475 8.455 1.175 8.785 2.875 9.125 C2.875 8.465 2.875 7.805 2.875 7.125 C1.885 7.125 0.895 7.125 -0.125 7.125 C-0.125 6.465 -0.125 5.805 -0.125 5.125 C1.525 5.125 3.175 5.125 4.875 5.125 C4 10 4 10 2.875 11.125 C-0.0625 11.3125 -0.0625 11.3125 -3.125 11.125 C-5.125 9.125 -5.125 9.125 -5.375 5.625 C-5.05328869 1.12104166 -4.56738407 0.18269536 0 0 Z " fill="#EAB8C5" transform="translate(1125.125,41.875)"/>
<path d="M0 0 C1.32 0 2.64 0 4 0 C4 4.29 4 8.58 4 13 C2.68 13 1.36 13 0 13 C0 8.71 0 4.42 0 0 Z " fill="#EFEFEF" transform="translate(279,41)"/>
<path d="M0 0 C1.99954746 -0.04254356 4.00041636 -0.04080783 6 0 C7 1 7 1 7.0625 4.5625 C7.041875 5.696875 7.02125 6.83125 7 8 C5.02 8 3.04 8 1 8 C0.67 6.68 0.34 5.36 0 4 C1.65 3.67 3.3 3.34 5 3 C5 2.34 5 1.68 5 1 C3.35 1.33 1.7 1.66 0 2 C0 1.34 0 0.68 0 0 Z " fill="#E4A2B3" transform="translate(1252,45)"/>
<path d="M0 0 C1.2065625 0.0309375 1.2065625 0.0309375 2.4375 0.0625 C3.37173645 3.07281744 3.48199911 3.92900268 2.4375 7.0625 C0.77138095 7.105221 -0.89632885 7.10313832 -2.5625 7.0625 C-3.5625 6.0625 -3.5625 6.0625 -3.6875 3.5625 C-3.51717518 0.15600356 -3.41884482 0.08338646 0 0 Z " fill="#477AC1" transform="translate(188.5625,58.9375)"/>
<path d="M0 0 C1.66611905 -0.042721 3.33382885 -0.04063832 5 0 C6 1 6 1 6.125 3.5 C6 6 6 6 5 7 C3.33382885 7.04063832 1.66611905 7.042721 0 7 C-1.125 2.25 -1.125 2.25 0 0 Z " fill="#8AA8D3" transform="translate(198,59)"/>
<path d="M0 0 C1.4540625 0.0309375 1.4540625 0.0309375 2.9375 0.0625 C3.2675 1.3825 3.5975 2.7025 3.9375 4.0625 C1.9575 4.0625 -0.0225 4.0625 -2.0625 4.0625 C-1.7325 4.7225 -1.4025 5.3825 -1.0625 6.0625 C0.96213255 6.71463292 0.96213255 6.71463292 2.9375 7.0625 C-1.8125 8.1875 -1.8125 8.1875 -4.0625 7.0625 C-4.10504356 5.06295254 -4.10330783 3.06208364 -4.0625 1.0625 C-3.0625 0.0625 -3.0625 0.0625 0 0 Z " fill="#E4A2B3" transform="translate(1211.0625,44.9375)"/>
<path d="M0 0 C0.94875 0.04125 1.8975 0.0825 2.875 0.125 C2.875 1.115 2.875 2.105 2.875 3.125 C1.225 2.795 -0.425 2.465 -2.125 2.125 C-2.125 4.105 -2.125 6.085 -2.125 8.125 C-0.145 8.125 1.835 8.125 3.875 8.125 C3.545 9.115 3.215 10.105 2.875 11.125 C0 11.25 0 11.25 -3.125 11.125 C-5.125 9.125 -5.125 9.125 -5.375 5.625 C-5.05328869 1.12104166 -4.56738407 0.18269536 0 0 Z " fill="#EAB7C4" transform="translate(1195.125,41.875)"/>
<path d="M0 0 C0.33 0.99 0.66 1.98 1 3 C0.030625 2.814375 -0.93875 2.62875 -1.9375 2.4375 C-2.948125 2.293125 -3.95875 2.14875 -5 2 C-6.29633621 3.06645115 -6.29633621 3.06645115 -6.0625 5.5625 C-6.041875 6.366875 -6.02125 7.17125 -6 8 C-3.69 8 -1.38 8 1 8 C0.67 8.99 0.34 9.98 0 11 C-2.875 11.125 -2.875 11.125 -6 11 C-8 9 -8 9 -8.1953125 7.0546875 C-8.13020833 5.03645833 -8.06510417 3.01822917 -8 1 C-5.29120665 -0.35439668 -2.99066732 -0.06501451 0 0 Z " fill="#EAB8C5" transform="translate(1249,42)"/>
<path d="M0 0 C0.78375 0.04125 1.5675 0.0825 2.375 0.125 C2.705 1.445 3.035 2.765 3.375 4.125 C1.395 4.125 -0.585 4.125 -2.625 4.125 C-1.66634491 6.45575929 -1.66634491 6.45575929 1.375 8.125 C-0.275 7.795 -1.925 7.465 -3.625 7.125 C-4.25 4.75 -4.25 4.75 -4.625 2.125 C-2.625 0.125 -2.625 0.125 0 0 Z " fill="#E5A5B6" transform="translate(1135.625,44.875)"/>
<path d="M0 0 C0.66 0 1.32 0 2 0 C2 0.99 2 1.98 2 3 C2.99 3 3.98 3 5 3 C5.33 2.01 5.66 1.02 6 0 C6.33 0 6.66 0 7 0 C7 2.31 7 4.62 7 7 C4.66666667 7 2.33333333 7 0 7 C0 4.69 0 2.38 0 0 Z " fill="#89A8D2" transform="translate(210,59)"/>
<path d="M0 0 C0.66 0 1.32 0 2 0 C2 0.99 2 1.98 2 3 C2.99 3.33 3.98 3.66 5 4 C4.01 4 3.02 4 2 4 C2.57452746 7.93075644 2.57452746 7.93075644 5 11 C3.35 10.67 1.7 10.34 0 10 C-1.125 3.375 -1.125 3.375 0 0 Z " fill="#E8B1BF" transform="translate(1141,42)"/>
<path d="M0 0 C3 1 3 1 4 3 C4.66 2.01 5.32 1.02 6 0 C6 2.31 6 4.62 6 7 C5.01 6.34 4.02 5.68 3 5 C2.67 5.66 2.34 6.32 2 7 C1.34 7 0.68 7 0 7 C0 4.69 0 2.38 0 0 Z " fill="#88A6CF" transform="translate(245,59)"/>
<path d="M0 0 C0.99 0 1.98 0 3 0 C3.66 2.31 4.32 4.62 5 7 C3.02 7 1.04 7 -1 7 C-0.67 4.69 -0.34 2.38 0 0 Z " fill="#789ACB" transform="translate(235,59)"/>
<path d="M0 0 C1.65 0 3.3 0 5 0 C5 1.32 5 2.64 5 4 C4.01 4 3.02 4 2 4 C2 4.99 2 5.98 2 7 C1.34 7 0.68 7 0 7 C0 4.69 0 2.38 0 0 Z " fill="#7195C9" transform="translate(223,59)"/>
<path d="M0 0 C1.98 0.495 1.98 0.495 4 1 C4 2.32 4 3.64 4 5 C2.35 5 0.7 5 -1 5 C-0.67 3.35 -0.34 1.7 0 0 Z " fill="#C12950" transform="translate(1269,46)"/>
<path d="M0 0 C1.98 0.495 1.98 0.495 4 1 C4 2.32 4 3.64 4 5 C2.35 5 0.7 5 -1 5 C-0.67 3.35 -0.34 1.7 0 0 Z " fill="#C0274E" transform="translate(1163,46)"/>
<path d="M0 0 C0.33 0.99 0.66 1.98 1 3 C1.99 3.33 2.98 3.66 4 4 C3.01 4 2.02 4 1 4 C1 5.65 1 7.3 1 9 C1.99 9 2.98 9 4 9 C4 9.66 4 10.32 4 11 C2.68 11 1.36 11 0 11 C0 8.69 0 6.38 0 4 C-0.66 3.67 -1.32 3.34 -2 3 C-1.34 3 -0.68 3 0 3 C0 2.01 0 1.02 0 0 Z " fill="#ECC0CB" transform="translate(1231,42)"/>
<path d="M0 0 C1.65 0 3.3 0 5 0 C4.34 0.66 3.68 1.32 3 2 C2.60235737 3.98821313 2.26224651 5.98944339 2 8 C1.34 8 0.68 8 0 8 C0 5.36 0 2.72 0 0 Z " fill="#EAB9C6" transform="translate(1261,45)"/>
<path d="M0 0 C1.65 0 3.3 0 5 0 C4.34 0.66 3.68 1.32 3 2 C2.60235737 3.98821313 2.26224651 5.98944339 2 8 C1.34 8 0.68 8 0 8 C0 5.36 0 2.72 0 0 Z " fill="#EBBAC7" transform="translate(1201,45)"/>
<path d="M0 0 C0.99 0 1.98 0 3 0 C3 1.65 3 3.3 3 5 C1.68 5 0.36 5 -1 5 C-0.67 3.35 -0.34 1.7 0 0 Z " fill="#BD1943" transform="translate(1219,46)"/>
<path d="M0 0 C1.98 0 3.96 0 6 0 C5.67 1.32 5.34 2.64 5 4 C2.525 3.01 2.525 3.01 0 2 C0 1.34 0 0.68 0 0 Z " fill="#D05C79" transform="translate(1133,49)"/>
<path d="M0 0 C1.32 0.33 2.64 0.66 4 1 C3.67 2.32 3.34 3.64 3 5 C2.01 4.67 1.02 4.34 0 4 C0 2.68 0 1.36 0 0 Z " fill="#064CAE" transform="translate(199,60)"/>
</svg>
