<svg width="1440" height="878" viewBox="0 0 1440 878" fill="none" xmlns="http://www.w3.org/2000/svg">
<g clip-path="url(#clip0_1_12)">
<rect width="1440" height="878" fill="#002664"/>
<g opacity="0.04">
<path d="M125.983 1058.86L76.7925 652.363C71.6627 609.972 58.6425 569.843 38.9188 535.636L-112.877 272.37C-146.792 213.548 -160.212 138.479 -149.723 66.261L-118.023 -151.982" stroke="white" stroke-width="26.2262"/>
<path d="M194.743 1068.49L145.553 661.997C140.423 619.606 127.403 579.478 107.679 545.27L-44.1162 282.004C-78.0319 223.183 -91.4519 148.114 -80.9621 75.8953L-49.2621 -142.347" stroke="white" stroke-width="26.2262"/>
<path d="M263.504 1078.12L214.313 671.629C209.184 629.238 196.163 589.109 176.44 554.902L24.6442 291.636C-9.2715 232.814 -22.6915 157.746 -12.2017 85.5271L19.4983 -132.716" stroke="white" stroke-width="26.2262"/>
<path d="M332.265 1087.76L283.074 681.264C277.945 638.872 264.924 598.744 245.201 564.536L92.0268 298.88C58.9125 241.448 45.3006 168.457 54.5056 97.6779L93.5597 -202.618" stroke="white" stroke-width="26.2262"/>
</g>
<g opacity="0.9" filter="url(#filter0_f_1_12)">
<circle cx="32.5" cy="110.5" r="328.5" fill="#0053C2"/>
</g>
<g opacity="0.7" filter="url(#filter1_f_1_12)">
<circle cx="1329" cy="578" r="439" fill="#BB133E"/>
</g>
<path d="M542.227 361.24C541.267 361.24 540.373 361.073 539.547 360.74C538.72 360.407 537.993 359.927 537.367 359.3C536.74 358.673 536.247 357.92 535.887 357.04C535.54 356.16 535.367 355.18 535.367 354.1C535.367 352.94 535.567 351.86 535.967 350.86C536.38 349.86 536.947 348.987 537.667 348.24C538.387 347.493 539.227 346.913 540.187 346.5C541.147 346.073 542.18 345.86 543.287 345.86C544.327 345.86 545.253 346.04 546.067 346.4C546.88 346.76 547.553 347.233 548.087 347.82C548.633 348.393 549.007 349.02 549.207 349.7L547.047 350.72C546.793 349.907 546.327 349.253 545.647 348.76C544.98 348.253 544.14 348 543.127 348C542.34 348 541.613 348.153 540.947 348.46C540.293 348.767 539.72 349.193 539.227 349.74C538.747 350.287 538.373 350.927 538.107 351.66C537.853 352.38 537.727 353.16 537.727 354C537.727 355.027 537.92 355.927 538.307 356.7C538.707 357.46 539.26 358.047 539.967 358.46C540.673 358.873 541.493 359.08 542.427 359.08C543.267 359.08 544.027 358.913 544.707 358.58C545.4 358.233 545.967 357.753 546.407 357.14C546.847 356.513 547.113 355.787 547.207 354.96L547.347 353.94L548.327 354.9H542.667L542.847 352.9H549.767L549.627 354.5C549.52 355.553 549.253 356.5 548.827 357.34C548.4 358.167 547.847 358.873 547.167 359.46C546.5 360.033 545.74 360.473 544.887 360.78C544.047 361.087 543.16 361.24 542.227 361.24ZM556.434 361.24C555.394 361.24 554.481 361.013 553.694 360.56C552.921 360.093 552.314 359.46 551.874 358.66C551.447 357.86 551.234 356.96 551.234 355.96C551.234 355.133 551.374 354.36 551.654 353.64C551.947 352.907 552.347 352.267 552.854 351.72C553.374 351.16 553.974 350.727 554.654 350.42C555.347 350.1 556.101 349.94 556.914 349.94C557.967 349.94 558.854 350.16 559.574 350.6C560.307 351.04 560.861 351.633 561.234 352.38C561.607 353.113 561.794 353.92 561.794 354.8C561.794 355.027 561.774 355.267 561.734 355.52C561.694 355.773 561.654 356.013 561.614 356.24H552.974L553.114 354.44H560.454L559.314 355.22C559.501 354.593 559.507 354.027 559.334 353.52C559.161 353 558.861 352.593 558.434 352.3C558.007 351.993 557.494 351.84 556.894 351.84C556.134 351.84 555.507 352.033 555.014 352.42C554.521 352.793 554.154 353.307 553.914 353.96C553.674 354.613 553.554 355.36 553.554 356.2C553.554 356.827 553.681 357.373 553.934 357.84C554.187 358.293 554.534 358.64 554.974 358.88C555.414 359.12 555.914 359.24 556.474 359.24C557.141 359.24 557.714 359.087 558.194 358.78C558.687 358.473 559.087 358.087 559.394 357.62L561.194 358.6C560.941 359.107 560.574 359.56 560.094 359.96C559.627 360.36 559.081 360.673 558.454 360.9C557.827 361.127 557.154 361.24 556.434 361.24ZM567.783 361.12C566.623 361.12 565.763 360.793 565.203 360.14C564.657 359.473 564.463 358.56 564.623 357.4L565.343 352.22H563.423L563.723 350.18H563.963C564.47 350.18 564.897 350.027 565.243 349.72C565.59 349.4 565.797 348.987 565.863 348.48L565.983 347.7H568.263L567.903 350.18H570.343L570.043 352.22H567.623L566.883 357.42C566.83 357.793 566.837 358.107 566.903 358.36C566.983 358.613 567.137 358.807 567.363 358.94C567.59 359.06 567.91 359.12 568.323 359.12C568.457 359.12 568.583 359.113 568.703 359.1C568.837 359.087 568.977 359.073 569.123 359.06L568.943 361.02C568.77 361.06 568.57 361.087 568.343 361.1C568.13 361.113 567.943 361.12 567.783 361.12ZM575.104 365.42C574.81 365.42 574.53 365.393 574.264 365.34C574.01 365.287 573.777 365.207 573.564 365.1L573.724 363.22C573.884 363.247 574.07 363.273 574.284 363.3C574.497 363.34 574.697 363.36 574.884 363.36C575.297 363.36 575.644 363.293 575.924 363.16C576.217 363.027 576.477 362.827 576.704 362.56C576.93 362.307 577.157 361.993 577.384 361.62L578.344 360.04L578.104 361.94L575.084 350.16H577.424L579.584 359.2H578.724L583.484 350.16H586.024L579.544 362.24C579.197 362.88 578.804 363.44 578.364 363.92C577.937 364.4 577.45 364.767 576.904 365.02C576.37 365.287 575.77 365.42 575.104 365.42ZM591.555 361.24C590.555 361.24 589.648 361.013 588.835 360.56C588.035 360.107 587.395 359.48 586.915 358.68C586.435 357.867 586.195 356.94 586.195 355.9C586.195 355.073 586.348 354.3 586.655 353.58C586.962 352.847 587.388 352.213 587.935 351.68C588.495 351.133 589.135 350.707 589.855 350.4C590.575 350.093 591.348 349.94 592.175 349.94C593.188 349.94 594.102 350.167 594.915 350.62C595.728 351.073 596.368 351.7 596.835 352.5C597.302 353.287 597.535 354.2 597.535 355.24C597.535 356.067 597.382 356.847 597.075 357.58C596.768 358.3 596.335 358.94 595.775 359.5C595.228 360.047 594.595 360.473 593.875 360.78C593.155 361.087 592.382 361.24 591.555 361.24ZM591.575 359.14C592.268 359.14 592.882 358.96 593.415 358.6C593.962 358.24 594.388 357.767 594.695 357.18C595.015 356.58 595.175 355.927 595.175 355.22C595.175 354.593 595.048 354.047 594.795 353.58C594.542 353.1 594.188 352.727 593.735 352.46C593.282 352.18 592.762 352.04 592.175 352.04C591.482 352.04 590.862 352.22 590.315 352.58C589.768 352.927 589.335 353.393 589.015 353.98C588.708 354.567 588.555 355.22 588.555 355.94C588.555 356.553 588.682 357.1 588.935 357.58C589.188 358.06 589.542 358.44 589.995 358.72C590.448 359 590.975 359.14 591.575 359.14ZM602.959 361.24C602.133 361.24 601.426 361.047 600.839 360.66C600.253 360.273 599.833 359.733 599.579 359.04C599.339 358.347 599.279 357.533 599.399 356.6L600.319 350.18H602.559L601.659 356.68C601.593 357.173 601.633 357.607 601.779 357.98C601.926 358.34 602.159 358.627 602.479 358.84C602.813 359.04 603.206 359.14 603.659 359.14C604.139 359.14 604.573 359.033 604.959 358.82C605.359 358.607 605.693 358.307 605.959 357.92C606.226 357.52 606.399 357.06 606.479 356.54L607.359 350.18H609.619L608.099 361H605.959L606.239 358.88L606.459 359.22C606.113 359.887 605.633 360.393 605.019 360.74C604.406 361.073 603.719 361.24 602.959 361.24ZM610.758 361L612.258 350.18H614.438L614.138 352.36L613.958 352.04C614.304 351.333 614.764 350.827 615.338 350.52C615.911 350.2 616.571 350.04 617.318 350.04H617.978L617.698 352.1H616.758C615.998 352.1 615.358 352.34 614.838 352.82C614.318 353.3 613.991 354.013 613.858 354.96L613.018 361H610.758ZM622.68 361L623.9 352.22H621.94L622.22 350.18H624.2L624.28 349.66C624.413 348.82 624.68 348.12 625.08 347.56C625.48 347 625.98 346.58 626.58 346.3C627.193 346.007 627.86 345.86 628.58 345.86C628.78 345.86 628.973 345.873 629.16 345.9C629.36 345.913 629.527 345.933 629.66 345.96L629.5 347.9C629.393 347.873 629.273 347.86 629.14 347.86C629.02 347.86 628.933 347.86 628.88 347.86C628.253 347.86 627.727 348 627.3 348.28C626.887 348.547 626.627 349.033 626.52 349.74L626.46 350.18H631.66L631.36 352.22H626.18L624.96 361H622.68ZM629.08 361L630.58 350.18H632.86L631.34 361H629.08ZM633.746 361L635.246 350.18H637.406L637.126 352.3L636.886 351.96C637.233 351.28 637.713 350.773 638.326 350.44C638.953 350.107 639.646 349.94 640.406 349.94C641.206 349.94 641.893 350.127 642.466 350.5C643.053 350.873 643.479 351.387 643.746 352.04C644.026 352.693 644.106 353.433 643.986 354.26L643.046 361H640.786L641.686 354.5C641.793 353.753 641.659 353.16 641.286 352.72C640.913 352.267 640.379 352.04 639.686 352.04C639.219 352.04 638.786 352.147 638.386 352.36C637.986 352.573 637.653 352.873 637.386 353.26C637.119 353.647 636.946 354.107 636.866 354.64L635.986 361H633.746ZM648.984 361.24C648.318 361.24 647.718 361.133 647.184 360.92C646.651 360.693 646.224 360.36 645.904 359.92C645.598 359.48 645.444 358.933 645.444 358.28C645.444 357.627 645.611 357.053 645.944 356.56C646.278 356.067 646.744 355.667 647.344 355.36C647.944 355.04 648.638 354.82 649.424 354.7L653.304 354.08L653.124 355.86L649.784 356.44C649.198 356.547 648.718 356.747 648.344 357.04C647.984 357.32 647.804 357.693 647.804 358.16C647.804 358.573 647.951 358.893 648.244 359.12C648.551 359.347 648.951 359.46 649.444 359.46C650.031 359.46 650.558 359.327 651.024 359.06C651.491 358.78 651.878 358.413 652.184 357.96C652.504 357.493 652.698 356.987 652.764 356.44L653.124 353.8C653.178 353.387 653.111 353.04 652.924 352.76C652.751 352.48 652.504 352.267 652.184 352.12C651.864 351.973 651.511 351.9 651.124 351.9C650.498 351.9 649.938 352.067 649.444 352.4C648.964 352.72 648.591 353.133 648.324 353.64L646.504 352.6C646.771 352.067 647.144 351.6 647.624 351.2C648.104 350.8 648.658 350.493 649.284 350.28C649.911 350.053 650.571 349.94 651.264 349.94C652.118 349.94 652.871 350.107 653.524 350.44C654.178 350.773 654.678 351.24 655.024 351.84C655.371 352.427 655.491 353.113 655.384 353.9L654.384 361H652.224L652.484 359.04L653.024 359.14C652.718 359.593 652.358 359.98 651.944 360.3C651.531 360.607 651.071 360.84 650.564 361C650.071 361.16 649.544 361.24 648.984 361.24ZM657.047 361L658.547 350.18H660.707L660.427 352.3L660.187 351.96C660.533 351.28 661.013 350.773 661.627 350.44C662.253 350.107 662.947 349.94 663.707 349.94C664.507 349.94 665.193 350.127 665.767 350.5C666.353 350.873 666.78 351.387 667.047 352.04C667.327 352.693 667.407 353.433 667.287 354.26L666.347 361H664.087L664.987 354.5C665.093 353.753 664.96 353.16 664.587 352.72C664.213 352.267 663.68 352.04 662.987 352.04C662.52 352.04 662.087 352.147 661.687 352.36C661.287 352.573 660.953 352.873 660.687 353.26C660.42 353.647 660.247 354.107 660.167 354.64L659.287 361H657.047ZM674.305 361.24C673.305 361.24 672.412 361.013 671.625 360.56C670.838 360.093 670.218 359.46 669.765 358.66C669.325 357.86 669.105 356.953 669.105 355.94C669.105 355.1 669.258 354.313 669.565 353.58C669.872 352.847 670.292 352.207 670.825 351.66C671.358 351.113 671.978 350.693 672.685 350.4C673.405 350.093 674.178 349.94 675.005 349.94C675.765 349.94 676.458 350.073 677.085 350.34C677.712 350.593 678.245 350.953 678.685 351.42C679.138 351.873 679.458 352.407 679.645 353.02L677.625 353.86C677.438 353.3 677.112 352.86 676.645 352.54C676.178 352.207 675.625 352.04 674.985 352.04C674.292 352.04 673.678 352.22 673.145 352.58C672.625 352.94 672.212 353.42 671.905 354.02C671.612 354.607 671.465 355.247 671.465 355.94C671.465 356.567 671.585 357.12 671.825 357.6C672.078 358.08 672.425 358.46 672.865 358.74C673.318 359.007 673.825 359.14 674.385 359.14C675.065 359.14 675.665 358.967 676.185 358.62C676.705 358.26 677.098 357.793 677.365 357.22L679.305 358.22C679.038 358.807 678.658 359.327 678.165 359.78C677.672 360.233 677.092 360.593 676.425 360.86C675.772 361.113 675.065 361.24 674.305 361.24ZM686.649 361.24C685.609 361.24 684.695 361.013 683.909 360.56C683.135 360.093 682.529 359.46 682.089 358.66C681.662 357.86 681.449 356.96 681.449 355.96C681.449 355.133 681.589 354.36 681.869 353.64C682.162 352.907 682.562 352.267 683.069 351.72C683.589 351.16 684.189 350.727 684.869 350.42C685.562 350.1 686.315 349.94 687.129 349.94C688.182 349.94 689.069 350.16 689.789 350.6C690.522 351.04 691.075 351.633 691.449 352.38C691.822 353.113 692.009 353.92 692.009 354.8C692.009 355.027 691.989 355.267 691.949 355.52C691.909 355.773 691.869 356.013 691.829 356.24H683.189L683.329 354.44H690.669L689.529 355.22C689.715 354.593 689.722 354.027 689.549 353.52C689.375 353 689.075 352.593 688.649 352.3C688.222 351.993 687.709 351.84 687.109 351.84C686.349 351.84 685.722 352.033 685.229 352.42C684.735 352.793 684.369 353.307 684.129 353.96C683.889 354.613 683.769 355.36 683.769 356.2C683.769 356.827 683.895 357.373 684.149 357.84C684.402 358.293 684.749 358.64 685.189 358.88C685.629 359.12 686.129 359.24 686.689 359.24C687.355 359.24 687.929 359.087 688.409 358.78C688.902 358.473 689.302 358.087 689.609 357.62L691.409 358.6C691.155 359.107 690.789 359.56 690.309 359.96C689.842 360.36 689.295 360.673 688.669 360.9C688.042 361.127 687.369 361.24 686.649 361.24ZM697.594 361.24C696.86 361.24 696.187 361.113 695.574 360.86C694.96 360.607 694.44 360.247 694.014 359.78C693.6 359.313 693.314 358.773 693.154 358.16L694.934 357.44C695.16 358.053 695.514 358.533 695.994 358.88C696.487 359.227 697.06 359.4 697.714 359.4C698.3 359.4 698.76 359.267 699.094 359C699.44 358.72 699.614 358.373 699.614 357.96C699.614 357.64 699.494 357.387 699.254 357.2C699.027 357.013 698.727 356.867 698.354 356.76L696.694 356.3C695.88 356.073 695.26 355.713 694.834 355.22C694.407 354.713 694.194 354.113 694.194 353.42C694.194 352.753 694.374 352.16 694.734 351.64C695.094 351.12 695.587 350.707 696.214 350.4C696.84 350.093 697.54 349.94 698.314 349.94C699.34 349.94 700.214 350.193 700.934 350.7C701.667 351.207 702.154 351.893 702.394 352.76L700.574 353.48C700.427 352.947 700.14 352.54 699.714 352.26C699.287 351.967 698.794 351.82 698.234 351.82C697.7 351.82 697.26 351.947 696.914 352.2C696.58 352.44 696.414 352.767 696.414 353.18C696.414 353.5 696.527 353.753 696.754 353.94C696.98 354.127 697.274 354.273 697.634 354.38L699.334 354.9C700.147 355.153 700.767 355.527 701.194 356.02C701.634 356.513 701.854 357.1 701.854 357.78C701.854 358.433 701.667 359.02 701.294 359.54C700.934 360.06 700.434 360.473 699.794 360.78C699.154 361.087 698.42 361.24 697.594 361.24ZM706.584 365L708.644 350.18H710.824L710.524 352.42L709.984 351.88C710.411 351.267 710.964 350.793 711.644 350.46C712.338 350.113 713.104 349.94 713.944 349.94C714.958 349.94 715.844 350.173 716.604 350.64C717.378 351.107 717.978 351.74 718.404 352.54C718.844 353.327 719.064 354.213 719.064 355.2C719.064 356.027 718.918 356.807 718.624 357.54C718.331 358.26 717.918 358.9 717.384 359.46C716.864 360.02 716.251 360.46 715.544 360.78C714.851 361.087 714.091 361.24 713.264 361.24C712.398 361.24 711.604 361.06 710.884 360.7C710.178 360.34 709.644 359.833 709.284 359.18L709.764 358.8L708.904 365H706.584ZM713.084 359.14C713.791 359.14 714.411 358.967 714.944 358.62C715.491 358.26 715.918 357.787 716.224 357.2C716.544 356.6 716.704 355.94 716.704 355.22C716.704 354.607 716.571 354.06 716.304 353.58C716.051 353.1 715.698 352.727 715.244 352.46C714.791 352.18 714.258 352.04 713.644 352.04C712.951 352.04 712.331 352.22 711.784 352.58C711.251 352.927 710.831 353.393 710.524 353.98C710.231 354.567 710.084 355.213 710.084 355.92C710.084 356.547 710.211 357.107 710.464 357.6C710.731 358.08 711.084 358.46 711.524 358.74C711.978 359.007 712.498 359.14 713.084 359.14ZM720.523 361L722.023 350.18H724.203L723.903 352.36L723.723 352.04C724.07 351.333 724.53 350.827 725.103 350.52C725.677 350.2 726.337 350.04 727.083 350.04H727.743L727.463 352.1H726.523C725.763 352.1 725.123 352.34 724.603 352.82C724.083 353.3 723.757 354.013 723.623 354.96L722.783 361H720.523ZM733.449 361.24C732.449 361.24 731.543 361.013 730.729 360.56C729.929 360.107 729.289 359.48 728.809 358.68C728.329 357.867 728.089 356.94 728.089 355.9C728.089 355.073 728.243 354.3 728.549 353.58C728.856 352.847 729.283 352.213 729.829 351.68C730.389 351.133 731.029 350.707 731.749 350.4C732.469 350.093 733.243 349.94 734.069 349.94C735.083 349.94 735.996 350.167 736.809 350.62C737.623 351.073 738.263 351.7 738.729 352.5C739.196 353.287 739.429 354.2 739.429 355.24C739.429 356.067 739.276 356.847 738.969 357.58C738.663 358.3 738.229 358.94 737.669 359.5C737.123 360.047 736.489 360.473 735.769 360.78C735.049 361.087 734.276 361.24 733.449 361.24ZM733.469 359.14C734.163 359.14 734.776 358.96 735.309 358.6C735.856 358.24 736.283 357.767 736.589 357.18C736.909 356.58 737.069 355.927 737.069 355.22C737.069 354.593 736.943 354.047 736.689 353.58C736.436 353.1 736.083 352.727 735.629 352.46C735.176 352.18 734.656 352.04 734.069 352.04C733.376 352.04 732.756 352.22 732.209 352.58C731.663 352.927 731.229 353.393 730.909 353.98C730.603 354.567 730.449 355.22 730.449 355.94C730.449 356.553 730.576 357.1 730.829 357.58C731.083 358.06 731.436 358.44 731.889 358.72C732.343 359 732.869 359.14 733.469 359.14ZM745.479 361.12C744.319 361.12 743.459 360.793 742.899 360.14C742.352 359.473 742.159 358.56 742.319 357.4L743.039 352.22H741.119L741.419 350.18H741.659C742.165 350.18 742.592 350.027 742.939 349.72C743.285 349.4 743.492 348.987 743.559 348.48L743.679 347.7H745.959L745.599 350.18H748.039L747.739 352.22H745.319L744.579 357.42C744.525 357.793 744.532 358.107 744.599 358.36C744.679 358.613 744.832 358.807 745.059 358.94C745.285 359.06 745.605 359.12 746.019 359.12C746.152 359.12 746.279 359.113 746.399 359.1C746.532 359.087 746.672 359.073 746.819 359.06L746.639 361.02C746.465 361.06 746.265 361.087 746.039 361.1C745.825 361.113 745.639 361.12 745.479 361.12ZM754.11 361.24C753.07 361.24 752.156 361.013 751.37 360.56C750.596 360.093 749.99 359.46 749.55 358.66C749.123 357.86 748.91 356.96 748.91 355.96C748.91 355.133 749.05 354.36 749.33 353.64C749.623 352.907 750.023 352.267 750.53 351.72C751.05 351.16 751.65 350.727 752.33 350.42C753.023 350.1 753.776 349.94 754.59 349.94C755.643 349.94 756.53 350.16 757.25 350.6C757.983 351.04 758.536 351.633 758.91 352.38C759.283 353.113 759.47 353.92 759.47 354.8C759.47 355.027 759.45 355.267 759.41 355.52C759.37 355.773 759.33 356.013 759.29 356.24H750.65L750.79 354.44H758.13L756.99 355.22C757.176 354.593 757.183 354.027 757.01 353.52C756.836 353 756.536 352.593 756.11 352.3C755.683 351.993 755.17 351.84 754.57 351.84C753.81 351.84 753.183 352.033 752.69 352.42C752.196 352.793 751.83 353.307 751.59 353.96C751.35 354.613 751.23 355.36 751.23 356.2C751.23 356.827 751.356 357.373 751.61 357.84C751.863 358.293 752.21 358.64 752.65 358.88C753.09 359.12 753.59 359.24 754.15 359.24C754.816 359.24 755.39 359.087 755.87 358.78C756.363 358.473 756.763 358.087 757.07 357.62L758.87 358.6C758.616 359.107 758.25 359.56 757.77 359.96C757.303 360.36 756.756 360.673 756.13 360.9C755.503 361.127 754.83 361.24 754.11 361.24ZM766.414 361.24C765.414 361.24 764.521 361.013 763.734 360.56C762.948 360.093 762.328 359.46 761.874 358.66C761.434 357.86 761.214 356.953 761.214 355.94C761.214 355.1 761.368 354.313 761.674 353.58C761.981 352.847 762.401 352.207 762.934 351.66C763.468 351.113 764.088 350.693 764.794 350.4C765.514 350.093 766.288 349.94 767.114 349.94C767.874 349.94 768.568 350.073 769.194 350.34C769.821 350.593 770.354 350.953 770.794 351.42C771.248 351.873 771.568 352.407 771.754 353.02L769.734 353.86C769.548 353.3 769.221 352.86 768.754 352.54C768.288 352.207 767.734 352.04 767.094 352.04C766.401 352.04 765.788 352.22 765.254 352.58C764.734 352.94 764.321 353.42 764.014 354.02C763.721 354.607 763.574 355.247 763.574 355.94C763.574 356.567 763.694 357.12 763.934 357.6C764.188 358.08 764.534 358.46 764.974 358.74C765.428 359.007 765.934 359.14 766.494 359.14C767.174 359.14 767.774 358.967 768.294 358.62C768.814 358.26 769.208 357.793 769.474 357.22L771.414 358.22C771.148 358.807 770.768 359.327 770.274 359.78C769.781 360.233 769.201 360.593 768.534 360.86C767.881 361.113 767.174 361.24 766.414 361.24ZM777.998 361.12C776.838 361.12 775.978 360.793 775.418 360.14C774.872 359.473 774.678 358.56 774.838 357.4L775.558 352.22H773.638L773.938 350.18H774.178C774.685 350.18 775.112 350.027 775.458 349.72C775.805 349.4 776.012 348.987 776.078 348.48L776.198 347.7H778.478L778.118 350.18H780.558L780.258 352.22H777.838L777.098 357.42C777.045 357.793 777.052 358.107 777.118 358.36C777.198 358.613 777.352 358.807 777.578 358.94C777.805 359.06 778.125 359.12 778.538 359.12C778.672 359.12 778.798 359.113 778.918 359.1C779.052 359.087 779.192 359.073 779.338 359.06L779.158 361.02C778.985 361.06 778.785 361.087 778.558 361.1C778.345 361.113 778.158 361.12 777.998 361.12ZM786.629 361.24C785.589 361.24 784.676 361.013 783.889 360.56C783.116 360.093 782.509 359.46 782.069 358.66C781.643 357.86 781.429 356.96 781.429 355.96C781.429 355.133 781.569 354.36 781.849 353.64C782.143 352.907 782.543 352.267 783.049 351.72C783.569 351.16 784.169 350.727 784.849 350.42C785.543 350.1 786.296 349.94 787.109 349.94C788.163 349.94 789.049 350.16 789.769 350.6C790.503 351.04 791.056 351.633 791.429 352.38C791.803 353.113 791.989 353.92 791.989 354.8C791.989 355.027 791.969 355.267 791.929 355.52C791.889 355.773 791.849 356.013 791.809 356.24H783.169L783.309 354.44H790.649L789.509 355.22C789.696 354.593 789.703 354.027 789.529 353.52C789.356 353 789.056 352.593 788.629 352.3C788.203 351.993 787.689 351.84 787.089 351.84C786.329 351.84 785.703 352.033 785.209 352.42C784.716 352.793 784.349 353.307 784.109 353.96C783.869 354.613 783.749 355.36 783.749 356.2C783.749 356.827 783.876 357.373 784.129 357.84C784.383 358.293 784.729 358.64 785.169 358.88C785.609 359.12 786.109 359.24 786.669 359.24C787.336 359.24 787.909 359.087 788.389 358.78C788.883 358.473 789.283 358.087 789.589 357.62L791.389 358.6C791.136 359.107 790.769 359.56 790.289 359.96C789.823 360.36 789.276 360.673 788.649 360.9C788.023 361.127 787.349 361.24 786.629 361.24ZM798.814 361.24C797.814 361.24 796.927 361.02 796.154 360.58C795.394 360.127 794.794 359.513 794.354 358.74C793.927 357.953 793.714 357.06 793.714 356.06C793.714 355.167 793.867 354.353 794.174 353.62C794.481 352.873 794.901 352.227 795.434 351.68C795.967 351.12 796.587 350.693 797.294 350.4C798.014 350.093 798.781 349.94 799.594 349.94C800.501 349.94 801.287 350.12 801.954 350.48C802.621 350.84 803.141 351.34 803.514 351.98L803.074 352.42L803.974 345.86H806.254L804.134 361H801.974L802.274 358.8L802.814 359.14C802.401 359.833 801.834 360.36 801.114 360.72C800.407 361.067 799.641 361.24 798.814 361.24ZM799.074 359.14C799.781 359.14 800.401 358.96 800.934 358.6C801.481 358.24 801.907 357.767 802.214 357.18C802.534 356.58 802.694 355.927 802.694 355.22C802.694 354.607 802.567 354.06 802.314 353.58C802.061 353.1 801.707 352.727 801.254 352.46C800.801 352.18 800.281 352.04 799.694 352.04C799.001 352.04 798.381 352.22 797.834 352.58C797.287 352.927 796.854 353.4 796.534 354C796.227 354.587 796.074 355.24 796.074 355.96C796.074 356.573 796.201 357.12 796.454 357.6C796.707 358.08 797.061 358.46 797.514 358.74C797.967 359.007 798.487 359.14 799.074 359.14ZM810.289 361L811.789 350.18H814.069L812.549 361H810.289ZM812.009 348.7L812.369 346.1H814.629L814.269 348.7H812.009ZM815.211 361L816.711 350.18H818.871L818.591 352.3L818.351 351.96C818.698 351.28 819.178 350.773 819.791 350.44C820.418 350.107 821.111 349.94 821.871 349.94C822.671 349.94 823.358 350.127 823.931 350.5C824.518 350.873 824.944 351.387 825.211 352.04C825.491 352.693 825.571 353.433 825.451 354.26L824.511 361H822.251L823.151 354.5C823.258 353.753 823.124 353.16 822.751 352.72C822.378 352.267 821.844 352.04 821.151 352.04C820.684 352.04 820.251 352.147 819.851 352.36C819.451 352.573 819.118 352.873 818.851 353.26C818.584 353.647 818.411 354.107 818.331 354.64L817.451 361H815.211ZM830.445 361L831.945 350.18H834.105L833.805 352.44L833.565 352.08C833.925 351.347 834.399 350.807 834.985 350.46C835.585 350.113 836.259 349.94 837.005 349.94C837.872 349.94 838.612 350.173 839.225 350.64C839.839 351.093 840.239 351.713 840.425 352.5L839.685 352.52C840.112 351.627 840.692 350.973 841.425 350.56C842.172 350.147 842.965 349.94 843.805 349.94C844.592 349.94 845.265 350.12 845.825 350.48C846.399 350.84 846.825 351.34 847.105 351.98C847.385 352.607 847.465 353.333 847.345 354.16L846.385 361H844.145L845.045 354.5C845.112 353.993 845.072 353.56 844.925 353.2C844.792 352.827 844.572 352.54 844.265 352.34C843.972 352.14 843.599 352.04 843.145 352.04C842.705 352.04 842.292 352.14 841.905 352.34C841.519 352.54 841.192 352.827 840.925 353.2C840.672 353.56 840.512 353.993 840.445 354.5L839.545 361H837.285L838.185 354.5C838.265 353.993 838.232 353.56 838.085 353.2C837.952 352.827 837.732 352.54 837.425 352.34C837.119 352.14 836.739 352.04 836.285 352.04C835.832 352.04 835.412 352.147 835.025 352.36C834.639 352.573 834.319 352.873 834.065 353.26C833.812 353.647 833.645 354.107 833.565 354.64L832.685 361H830.445ZM848.824 361L850.324 350.18H852.604L851.084 361H848.824ZM850.544 348.7L850.904 346.1H853.164L852.804 348.7H850.544ZM853.746 361L855.246 350.18H857.406L857.126 352.3L856.886 351.96C857.233 351.28 857.713 350.773 858.326 350.44C858.953 350.107 859.646 349.94 860.406 349.94C861.206 349.94 861.893 350.127 862.466 350.5C863.053 350.873 863.479 351.387 863.746 352.04C864.026 352.693 864.106 353.433 863.986 354.26L863.046 361H860.786L861.686 354.5C861.793 353.753 861.659 353.16 861.286 352.72C860.913 352.267 860.379 352.04 859.686 352.04C859.219 352.04 858.786 352.147 858.386 352.36C857.986 352.573 857.653 352.873 857.386 353.26C857.119 353.647 856.946 354.107 856.866 354.64L855.986 361H853.746ZM869.424 361.24C868.598 361.24 867.891 361.047 867.304 360.66C866.718 360.273 866.298 359.733 866.044 359.04C865.804 358.347 865.744 357.533 865.864 356.6L866.784 350.18H869.024L868.124 356.68C868.058 357.173 868.098 357.607 868.244 357.98C868.391 358.34 868.624 358.627 868.944 358.84C869.278 359.04 869.671 359.14 870.124 359.14C870.604 359.14 871.038 359.033 871.424 358.82C871.824 358.607 872.158 358.307 872.424 357.92C872.691 357.52 872.864 357.06 872.944 356.54L873.824 350.18H876.084L874.564 361H872.424L872.704 358.88L872.924 359.22C872.578 359.887 872.098 360.393 871.484 360.74C870.871 361.073 870.184 361.24 869.424 361.24ZM881.983 361.12C880.823 361.12 879.963 360.793 879.403 360.14C878.856 359.473 878.663 358.56 878.823 357.4L879.543 352.22H877.623L877.923 350.18H878.163C878.669 350.18 879.096 350.027 879.443 349.72C879.789 349.4 879.996 348.987 880.063 348.48L880.183 347.7H882.463L882.103 350.18H884.543L884.243 352.22H881.823L881.083 357.42C881.029 357.793 881.036 358.107 881.103 358.36C881.183 358.613 881.336 358.807 881.563 358.94C881.789 359.06 882.109 359.12 882.523 359.12C882.656 359.12 882.783 359.113 882.903 359.1C883.036 359.087 883.176 359.073 883.323 359.06L883.143 361.02C882.969 361.06 882.769 361.087 882.543 361.1C882.329 361.113 882.143 361.12 881.983 361.12ZM890.614 361.24C889.574 361.24 888.66 361.013 887.874 360.56C887.1 360.093 886.494 359.46 886.054 358.66C885.627 357.86 885.414 356.96 885.414 355.96C885.414 355.133 885.554 354.36 885.834 353.64C886.127 352.907 886.527 352.267 887.034 351.72C887.554 351.16 888.154 350.727 888.834 350.42C889.527 350.1 890.28 349.94 891.094 349.94C892.147 349.94 893.034 350.16 893.754 350.6C894.487 351.04 895.04 351.633 895.414 352.38C895.787 353.113 895.974 353.92 895.974 354.8C895.974 355.027 895.954 355.267 895.914 355.52C895.874 355.773 895.834 356.013 895.794 356.24H887.154L887.294 354.44H894.634L893.494 355.22C893.68 354.593 893.687 354.027 893.514 353.52C893.34 353 893.04 352.593 892.614 352.3C892.187 351.993 891.674 351.84 891.074 351.84C890.314 351.84 889.687 352.033 889.194 352.42C888.7 352.793 888.334 353.307 888.094 353.96C887.854 354.613 887.734 355.36 887.734 356.2C887.734 356.827 887.86 357.373 888.114 357.84C888.367 358.293 888.714 358.64 889.154 358.88C889.594 359.12 890.094 359.24 890.654 359.24C891.32 359.24 891.894 359.087 892.374 358.78C892.867 358.473 893.267 358.087 893.574 357.62L895.374 358.6C895.12 359.107 894.754 359.56 894.274 359.96C893.807 360.36 893.26 360.673 892.634 360.9C892.007 361.127 891.334 361.24 890.614 361.24ZM901.558 361.24C900.825 361.24 900.152 361.113 899.538 360.86C898.925 360.607 898.405 360.247 897.978 359.78C897.565 359.313 897.278 358.773 897.118 358.16L898.898 357.44C899.125 358.053 899.478 358.533 899.958 358.88C900.452 359.227 901.025 359.4 901.678 359.4C902.265 359.4 902.725 359.267 903.058 359C903.405 358.72 903.578 358.373 903.578 357.96C903.578 357.64 903.458 357.387 903.218 357.2C902.992 357.013 902.692 356.867 902.318 356.76L900.658 356.3C899.845 356.073 899.225 355.713 898.798 355.22C898.372 354.713 898.158 354.113 898.158 353.42C898.158 352.753 898.338 352.16 898.698 351.64C899.058 351.12 899.552 350.707 900.178 350.4C900.805 350.093 901.505 349.94 902.278 349.94C903.305 349.94 904.178 350.193 904.898 350.7C905.632 351.207 906.118 351.893 906.358 352.76L904.538 353.48C904.392 352.947 904.105 352.54 903.678 352.26C903.252 351.967 902.758 351.82 902.198 351.82C901.665 351.82 901.225 351.947 900.878 352.2C900.545 352.44 900.378 352.767 900.378 353.18C900.378 353.5 900.492 353.753 900.718 353.94C900.945 354.127 901.238 354.273 901.598 354.38L903.298 354.9C904.112 355.153 904.732 355.527 905.158 356.02C905.598 356.513 905.818 357.1 905.818 357.78C905.818 358.433 905.632 359.02 905.258 359.54C904.898 360.06 904.398 360.473 903.758 360.78C903.118 361.087 902.385 361.24 901.558 361.24Z" fill="white"/>
<path d="M300.918 468L324.766 405.784H337.878L361.638 468H349.758L345.622 456.472H316.934L312.71 468H300.918ZM320.454 446.528H342.014L331.278 416.872L320.454 446.528ZM367.204 485.072V421.624H377.236L377.764 427.872C379.582 425.467 381.753 423.707 384.276 422.592C386.798 421.477 389.585 420.92 392.636 420.92C397.212 420.92 400.996 421.976 403.988 424.088C406.98 426.2 409.209 429.045 410.676 432.624C412.142 436.203 412.876 440.251 412.876 444.768C412.876 449.285 412.113 453.363 410.588 457C409.062 460.579 406.745 463.424 403.636 465.536C400.585 467.589 396.742 468.616 392.108 468.616C389.937 468.616 387.942 468.381 386.124 467.912C384.364 467.443 382.78 466.768 381.372 465.888C380.022 465.008 378.878 464.011 377.94 462.896V485.072H367.204ZM390.436 458.936C393.428 458.936 395.774 458.291 397.476 457C399.177 455.651 400.409 453.92 401.172 451.808C401.934 449.637 402.316 447.349 402.316 444.944C402.316 442.421 401.905 440.075 401.084 437.904C400.321 435.733 399.06 433.973 397.3 432.624C395.54 431.275 393.193 430.6 390.26 430.6C387.561 430.6 385.273 431.275 383.396 432.624C381.577 433.915 380.198 435.645 379.26 437.816C378.321 439.987 377.852 442.333 377.852 444.856C377.852 447.437 378.292 449.813 379.172 451.984C380.052 454.096 381.43 455.797 383.308 457.088C385.185 458.32 387.561 458.936 390.436 458.936ZM421.516 485.072V421.624H431.548L432.076 427.872C433.895 425.467 436.066 423.707 438.588 422.592C441.111 421.477 443.898 420.92 446.948 420.92C451.524 420.92 455.308 421.976 458.3 424.088C461.292 426.2 463.522 429.045 464.988 432.624C466.455 436.203 467.188 440.251 467.188 444.768C467.188 449.285 466.426 453.363 464.9 457C463.375 460.579 461.058 463.424 457.948 465.536C454.898 467.589 451.055 468.616 446.42 468.616C444.25 468.616 442.255 468.381 440.436 467.912C438.676 467.443 437.092 466.768 435.684 465.888C434.335 465.008 433.191 464.011 432.252 462.896V485.072H421.516ZM444.748 458.936C447.74 458.936 450.087 458.291 451.788 457C453.49 455.651 454.722 453.92 455.484 451.808C456.247 449.637 456.628 447.349 456.628 444.944C456.628 442.421 456.218 440.075 455.396 437.904C454.634 435.733 453.372 433.973 451.612 432.624C449.852 431.275 447.506 430.6 444.572 430.6C441.874 430.6 439.586 431.275 437.708 432.624C435.89 433.915 434.511 435.645 433.572 437.816C432.634 439.987 432.164 442.333 432.164 444.856C432.164 447.437 432.604 449.813 433.484 451.984C434.364 454.096 435.743 455.797 437.62 457.088C439.498 458.32 441.874 458.936 444.748 458.936ZM475.829 468V405.784H486.565V468H475.829ZM517.473 489.208C513.895 489.208 510.404 488.709 507.001 487.712C503.657 486.773 500.548 485.16 497.673 482.872L501.545 474.248C503.54 475.832 505.769 477.064 508.233 477.944C510.697 478.883 513.396 479.352 516.329 479.352C520.964 479.352 524.337 478.179 526.449 475.832C528.62 473.485 529.705 470.288 529.705 466.24V462.808C528.649 464.157 527.359 465.272 525.833 466.152C524.308 467.032 522.665 467.677 520.905 468.088C519.145 468.499 517.356 468.704 515.537 468.704C511.02 468.704 507.412 467.795 504.713 465.976C502.073 464.099 500.167 461.547 498.993 458.32C497.82 455.035 497.233 451.309 497.233 447.144V421.624H507.881V444.768C507.881 446.411 507.999 448.083 508.233 449.784C508.468 451.485 508.937 453.04 509.641 454.448C510.345 455.856 511.372 457 512.721 457.88C514.129 458.701 515.977 459.112 518.265 459.112C521.257 459.112 523.575 458.379 525.217 456.912C526.86 455.445 527.975 453.539 528.561 451.192C529.207 448.845 529.529 446.352 529.529 443.712V421.624H540.265V463.6C540.265 467.531 539.855 471.051 539.033 474.16C538.212 477.328 536.892 480.027 535.073 482.256C533.255 484.485 530.908 486.187 528.033 487.36C525.159 488.592 521.639 489.208 517.473 489.208ZM576.932 468V405.784H588.724L618.732 451.104V405.784H629.732V468H618.204L587.932 422.944V468H576.932ZM663.068 468.616C658.316 468.616 654.209 467.648 650.748 465.712C647.345 463.776 644.705 461.019 642.828 457.44C641.009 453.861 640.1 449.667 640.1 444.856C640.1 439.987 641.039 435.792 642.916 432.272C644.793 428.693 647.433 425.907 650.836 423.912C654.239 421.917 658.316 420.92 663.068 420.92C667.761 420.92 671.809 421.917 675.212 423.912C678.615 425.907 681.225 428.723 683.044 432.36C684.863 435.939 685.772 440.163 685.772 445.032C685.772 449.784 684.863 453.949 683.044 457.528C681.284 461.048 678.703 463.776 675.3 465.712C671.897 467.648 667.82 468.616 663.068 468.616ZM662.98 458.848C665.913 458.848 668.26 458.203 670.02 456.912C671.839 455.621 673.159 453.92 673.98 451.808C674.801 449.696 675.212 447.408 675.212 444.944C675.212 442.48 674.801 440.163 673.98 437.992C673.159 435.821 671.839 434.091 670.02 432.8C668.26 431.451 665.913 430.776 662.98 430.776C660.047 430.776 657.671 431.451 655.852 432.8C654.033 434.091 652.713 435.821 651.892 437.992C651.071 440.104 650.66 442.421 650.66 444.944C650.66 447.408 651.071 449.725 651.892 451.896C652.772 454.008 654.092 455.709 655.852 457C657.671 458.232 660.047 458.848 662.98 458.848ZM704.136 468L689.616 421.624H701.496L710.824 456.208L720.768 421.624H733.44L743.384 456.208L752.624 421.624H764.328L749.808 468H736.96L726.928 434.56L716.984 468H704.136ZM796.245 468V405.784H839.717V415.816H807.245V434.384H835.053V444.416H807.245V468H796.245ZM866.396 468.616C861.644 468.616 857.537 467.648 854.076 465.712C850.673 463.776 848.033 461.019 846.156 457.44C844.337 453.861 843.428 449.667 843.428 444.856C843.428 439.987 844.367 435.792 846.244 432.272C848.121 428.693 850.761 425.907 854.164 423.912C857.567 421.917 861.644 420.92 866.396 420.92C871.089 420.92 875.137 421.917 878.54 423.912C881.943 425.907 884.553 428.723 886.372 432.36C888.191 435.939 889.1 440.163 889.1 445.032C889.1 449.784 888.191 453.949 886.372 457.528C884.612 461.048 882.031 463.776 878.628 465.712C875.225 467.648 871.148 468.616 866.396 468.616ZM866.308 458.848C869.241 458.848 871.588 458.203 873.348 456.912C875.167 455.621 876.487 453.92 877.308 451.808C878.129 449.696 878.54 447.408 878.54 444.944C878.54 442.48 878.129 440.163 877.308 437.992C876.487 435.821 875.167 434.091 873.348 432.8C871.588 431.451 869.241 430.776 866.308 430.776C863.375 430.776 860.999 431.451 859.18 432.8C857.361 434.091 856.041 435.821 855.22 437.992C854.399 440.104 853.988 442.421 853.988 444.944C853.988 447.408 854.399 449.725 855.22 451.896C856.1 454.008 857.42 455.709 859.18 457C860.999 458.232 863.375 458.848 866.308 458.848ZM897.696 468V421.624H907.464L908.08 427.696C909.253 425.936 910.573 424.587 912.04 423.648C913.565 422.651 915.179 421.947 916.88 421.536C918.64 421.125 920.4 420.92 922.16 420.92C922.805 420.92 923.392 420.92 923.92 420.92C924.507 420.92 924.976 420.949 925.328 421.008V431.216H922.512C919.461 431.216 916.88 431.803 914.768 432.976C912.656 434.149 911.072 435.821 910.016 437.992C908.96 440.163 908.432 442.832 908.432 446V468H897.696ZM974.437 468V444.768L951.645 405.784H964.405L980.069 434.296L995.733 405.784H1008.23L985.437 444.68V468H974.437ZM1029.16 468.616C1024.41 468.616 1020.3 467.648 1016.84 465.712C1013.44 463.776 1010.8 461.019 1008.92 457.44C1007.1 453.861 1006.19 449.667 1006.19 444.856C1006.19 439.987 1007.13 435.792 1009.01 432.272C1010.89 428.693 1013.53 425.907 1016.93 423.912C1020.33 421.917 1024.41 420.92 1029.16 420.92C1033.86 420.92 1037.9 421.917 1041.31 423.912C1044.71 425.907 1047.32 428.723 1049.14 432.36C1050.96 435.939 1051.87 440.163 1051.87 445.032C1051.87 449.784 1050.96 453.949 1049.14 457.528C1047.38 461.048 1044.8 463.776 1041.39 465.712C1037.99 467.648 1033.91 468.616 1029.16 468.616ZM1029.07 458.848C1032.01 458.848 1034.35 458.203 1036.11 456.912C1037.93 455.621 1039.25 453.92 1040.07 451.808C1040.9 449.696 1041.31 447.408 1041.31 444.944C1041.31 442.48 1040.9 440.163 1040.07 437.992C1039.25 435.821 1037.93 434.091 1036.11 432.8C1034.35 431.451 1032.01 430.776 1029.07 430.776C1026.14 430.776 1023.76 431.451 1021.95 432.8C1020.13 434.091 1018.81 435.821 1017.99 437.992C1017.16 440.104 1016.75 442.421 1016.75 444.944C1016.75 447.408 1017.16 449.725 1017.99 451.896C1018.87 454.008 1020.19 455.709 1021.95 457C1023.76 458.232 1026.14 458.848 1029.07 458.848ZM1080.97 468.616C1074.28 468.616 1069.14 466.885 1065.57 463.424C1062.05 459.963 1060.29 454.683 1060.29 447.584V421.624H1071.02V446.88C1071.02 449.344 1071.34 451.485 1071.99 453.304C1072.69 455.123 1073.78 456.531 1075.25 457.528C1076.77 458.467 1078.68 458.936 1080.97 458.936C1083.43 458.936 1085.37 458.437 1086.77 457.44C1088.24 456.384 1089.27 454.947 1089.85 453.128C1090.44 451.309 1090.73 449.227 1090.73 446.88V421.624H1101.47V447.584C1101.47 454.859 1099.65 460.197 1096.01 463.6C1092.43 466.944 1087.42 468.616 1080.97 468.616ZM1111.68 468V421.624H1121.45L1122.06 427.696C1123.24 425.936 1124.56 424.587 1126.02 423.648C1127.55 422.651 1129.16 421.947 1130.86 421.536C1132.62 421.125 1134.38 420.92 1136.14 420.92C1136.79 420.92 1137.38 420.92 1137.9 420.92C1138.49 420.92 1138.96 420.949 1139.31 421.008V431.216H1136.5C1133.45 431.216 1130.86 431.803 1128.75 432.976C1126.64 434.149 1125.06 435.821 1124 437.992C1122.94 440.163 1122.42 442.832 1122.42 446V468H1111.68ZM512.49 564.704C506.037 564.704 500.61 563.384 496.21 560.744C491.81 558.045 488.496 554.32 486.266 549.568C484.037 544.816 482.922 539.301 482.922 533.024C482.922 526.747 484.066 521.203 486.354 516.392C488.642 511.581 491.986 507.827 496.386 505.128C500.786 502.371 506.154 500.992 512.49 500.992C517.184 500.992 521.32 501.784 524.898 503.368C528.477 504.952 531.381 507.211 533.61 510.144C535.898 513.019 537.365 516.568 538.01 520.792H527.362C526.541 517.8 524.869 515.453 522.346 513.752C519.824 512.051 516.538 511.2 512.49 511.2C508.09 511.2 504.541 512.227 501.842 514.28C499.144 516.333 497.178 518.973 495.946 522.2C494.773 525.427 494.186 528.888 494.186 532.584C494.186 536.397 494.802 539.976 496.034 543.32C497.325 546.664 499.349 549.363 502.106 551.416C504.864 553.469 508.413 554.496 512.754 554.496C515.453 554.496 517.8 554.115 519.794 553.352C521.848 552.589 523.549 551.504 524.898 550.096C526.306 548.629 527.274 546.928 527.802 544.992H538.978C538.274 549.157 536.69 552.707 534.226 555.64C531.821 558.573 528.741 560.832 524.986 562.416C521.29 563.941 517.125 564.704 512.49 564.704ZM547.157 564V517.624H556.925L557.541 523.696C558.714 521.936 560.034 520.587 561.501 519.648C563.026 518.651 564.64 517.947 566.341 517.536C568.101 517.125 569.861 516.92 571.621 516.92C572.266 516.92 572.853 516.92 573.381 516.92C573.968 516.92 574.437 516.949 574.789 517.008V527.216H571.973C568.922 527.216 566.341 527.803 564.229 528.976C562.117 530.149 560.533 531.821 559.477 533.992C558.421 536.163 557.893 538.832 557.893 542V564H547.157ZM601.011 564.616C596.2 564.616 592.093 563.619 588.691 561.624C585.347 559.629 582.795 556.872 581.035 553.352C579.333 549.773 578.483 545.637 578.483 540.944C578.483 536.251 579.363 532.115 581.123 528.536C582.941 524.899 585.523 522.053 588.867 520C592.269 517.947 596.347 516.92 601.099 516.92C604.619 516.92 607.699 517.565 610.339 518.856C612.979 520.088 615.179 521.789 616.939 523.96C618.757 526.131 620.107 528.595 620.987 531.352C621.867 534.109 622.277 537.013 622.219 540.064C622.16 540.768 622.101 541.472 622.043 542.176C621.984 542.821 621.896 543.525 621.779 544.288H589.219C589.395 546.341 589.923 548.219 590.803 549.92C591.741 551.621 593.032 552.971 594.675 553.968C596.376 554.965 598.488 555.464 601.011 555.464C602.477 555.464 603.885 555.288 605.235 554.936C606.584 554.525 607.757 553.939 608.755 553.176C609.811 552.413 610.515 551.445 610.867 550.272H621.603C620.84 553.616 619.432 556.344 617.379 558.456C615.325 560.568 612.861 562.123 609.987 563.12C607.171 564.117 604.179 564.616 601.011 564.616ZM589.395 536.28H611.747C611.747 534.344 611.307 532.584 610.427 531C609.547 529.416 608.285 528.184 606.643 527.304C605.059 526.365 603.123 525.896 600.835 525.896C598.371 525.896 596.317 526.395 594.675 527.392C593.032 528.389 591.771 529.68 590.891 531.264C590.011 532.848 589.512 534.52 589.395 536.28ZM649.694 564.616C645.001 564.616 641.129 563.56 638.078 561.448C635.027 559.277 632.739 556.403 631.214 552.824C629.747 549.245 629.014 545.256 629.014 540.856C629.014 536.28 629.806 532.203 631.39 528.624C632.974 524.987 635.35 522.141 638.518 520.088C641.686 517.976 645.646 516.92 650.398 516.92C652.158 516.92 653.859 517.125 655.502 517.536C657.203 517.888 658.787 518.475 660.254 519.296C661.779 520.059 663.041 521.085 664.038 522.376V501.784H674.774V564H664.39L664.214 558.192C663.099 559.659 661.779 560.861 660.254 561.8C658.787 562.739 657.145 563.443 655.326 563.912C653.507 564.381 651.63 564.616 649.694 564.616ZM651.718 554.936C654.534 554.936 656.851 554.291 658.67 553C660.489 551.651 661.838 549.891 662.718 547.72C663.657 545.491 664.126 543.144 664.126 540.68C664.126 538.099 663.657 535.752 662.718 533.64C661.838 531.528 660.489 529.827 658.67 528.536C656.851 527.245 654.534 526.6 651.718 526.6C648.726 526.6 646.35 527.275 644.59 528.624C642.889 529.973 641.627 531.763 640.806 533.992C640.043 536.163 639.662 538.509 639.662 541.032C639.662 542.909 639.867 544.699 640.278 546.4C640.747 548.043 641.451 549.509 642.39 550.8C643.329 552.091 644.561 553.117 646.086 553.88C647.611 554.584 649.489 554.936 651.718 554.936ZM685.172 564V517.624H695.908V564H685.172ZM690.54 512.256C688.487 512.256 686.844 511.64 685.612 510.408C684.38 509.176 683.764 507.563 683.764 505.568C683.764 503.632 684.41 502.048 685.7 500.816C686.991 499.525 688.604 498.88 690.54 498.88C692.418 498.88 694.031 499.496 695.38 500.728C696.73 501.96 697.404 503.573 697.404 505.568C697.404 507.563 696.759 509.176 695.468 510.408C694.178 511.64 692.535 512.256 690.54 512.256ZM724.793 564.528C719.689 564.528 715.964 563.12 713.617 560.304C711.27 557.488 710.097 553.587 710.097 548.6V527.128H702.969V517.624H710.097V504.6H720.833V517.624H734.913V527.128H720.833V546.576C720.833 548.101 721.009 549.48 721.361 550.712C721.713 551.944 722.358 552.912 723.297 553.616C724.236 554.32 725.526 554.701 727.169 554.76C728.577 554.76 729.78 554.525 730.777 554.056C731.774 553.587 732.596 553.059 733.241 552.472L736.849 560.656C735.734 561.595 734.473 562.357 733.065 562.944C731.716 563.531 730.337 563.941 728.929 564.176C727.521 564.411 726.142 564.528 724.793 564.528ZM795.053 564.704C788.6 564.704 783.173 563.384 778.773 560.744C774.373 558.045 771.058 554.32 768.829 549.568C766.6 544.816 765.485 539.301 765.485 533.024C765.485 526.747 766.629 521.203 768.917 516.392C771.205 511.581 774.549 507.827 778.949 505.128C783.349 502.371 788.717 500.992 795.053 500.992C799.746 500.992 803.882 501.784 807.461 503.368C811.04 504.952 813.944 507.211 816.173 510.144C818.461 513.019 819.928 516.568 820.573 520.792H809.925C809.104 517.8 807.432 515.453 804.909 513.752C802.386 512.051 799.101 511.2 795.053 511.2C790.653 511.2 787.104 512.227 784.405 514.28C781.706 516.333 779.741 518.973 778.509 522.2C777.336 525.427 776.749 528.888 776.749 532.584C776.749 536.397 777.365 539.976 778.597 543.32C779.888 546.664 781.912 549.363 784.669 551.416C787.426 553.469 790.976 554.496 795.317 554.496C798.016 554.496 800.362 554.115 802.357 553.352C804.41 552.589 806.112 551.504 807.461 550.096C808.869 548.629 809.837 546.928 810.365 544.992H821.541C820.837 549.157 819.253 552.707 816.789 555.64C814.384 558.573 811.304 560.832 807.549 562.416C803.853 563.941 799.688 564.704 795.053 564.704ZM844.503 564.616C842.333 564.616 840.279 564.323 838.343 563.736C836.407 563.149 834.677 562.299 833.151 561.184C831.626 560.011 830.394 558.573 829.455 556.872C828.575 555.112 828.135 553.059 828.135 550.712C828.135 547.72 828.722 545.285 829.895 543.408C831.069 541.472 832.653 540.005 834.647 539.008C836.701 538.011 839.018 537.336 841.599 536.984C844.181 536.573 846.879 536.368 849.695 536.368H858.759C858.759 534.315 858.437 532.555 857.791 531.088C857.146 529.563 856.119 528.36 854.711 527.48C853.362 526.6 851.602 526.16 849.431 526.16C848.023 526.16 846.703 526.336 845.471 526.688C844.298 526.981 843.271 527.48 842.391 528.184C841.57 528.829 840.983 529.68 840.631 530.736H829.631C830.042 528.331 830.863 526.277 832.095 524.576C833.386 522.816 834.941 521.379 836.759 520.264C838.637 519.149 840.69 518.328 842.919 517.8C845.149 517.213 847.407 516.92 849.695 516.92C856.442 516.92 861.341 518.856 864.391 522.728C867.501 526.6 869.055 532.027 869.055 539.008V564H859.551L859.287 558.016C857.938 560.011 856.325 561.477 854.447 562.416C852.57 563.355 850.751 563.941 848.991 564.176C847.231 564.469 845.735 564.616 844.503 564.616ZM846.615 555.904C848.962 555.904 851.045 555.464 852.863 554.584C854.682 553.704 856.119 552.472 857.175 550.888C858.29 549.304 858.847 547.485 858.847 545.432V543.936H850.399C848.991 543.936 847.583 543.995 846.175 544.112C844.826 544.171 843.594 544.405 842.479 544.816C841.365 545.168 840.455 545.725 839.751 546.488C839.106 547.251 838.783 548.336 838.783 549.744C838.783 551.152 839.135 552.296 839.839 553.176C840.602 554.056 841.57 554.731 842.743 555.2C843.975 555.669 845.266 555.904 846.615 555.904ZM879.305 564V517.624H889.073L889.689 523.696C890.863 521.936 892.183 520.587 893.649 519.648C895.175 518.651 896.788 517.947 898.489 517.536C900.249 517.125 902.009 516.92 903.769 516.92C904.415 516.92 905.001 516.92 905.529 516.92C906.116 516.92 906.585 516.949 906.937 517.008V527.216H904.121C901.071 527.216 898.489 527.803 896.377 528.976C894.265 530.149 892.681 531.821 891.625 533.992C890.569 536.163 890.041 538.832 890.041 542V564H879.305ZM931.311 564.616C926.618 564.616 922.746 563.56 919.695 561.448C916.645 559.277 914.357 556.403 912.831 552.824C911.365 549.245 910.631 545.256 910.631 540.856C910.631 536.28 911.423 532.203 913.007 528.624C914.591 524.987 916.967 522.141 920.135 520.088C923.303 517.976 927.263 516.92 932.015 516.92C933.775 516.92 935.477 517.125 937.119 517.536C938.821 517.888 940.405 518.475 941.871 519.296C943.397 520.059 944.658 521.085 945.655 522.376V501.784H956.391V564H946.007L945.831 558.192C944.717 559.659 943.397 560.861 941.871 561.8C940.405 562.739 938.762 563.443 936.943 563.912C935.125 564.381 933.247 564.616 931.311 564.616ZM933.335 554.936C936.151 554.936 938.469 554.291 940.287 553C942.106 551.651 943.455 549.891 944.335 547.72C945.274 545.491 945.743 543.144 945.743 540.68C945.743 538.099 945.274 535.752 944.335 533.64C943.455 531.528 942.106 529.827 940.287 528.536C938.469 527.245 936.151 526.6 933.335 526.6C930.343 526.6 927.967 527.275 926.207 528.624C924.506 529.973 923.245 531.763 922.423 533.992C921.661 536.163 921.279 538.509 921.279 541.032C921.279 542.909 921.485 544.699 921.895 546.4C922.365 548.043 923.069 549.509 924.007 550.8C924.946 552.091 926.178 553.117 927.703 553.88C929.229 554.584 931.106 554.936 933.335 554.936Z" fill="white"/>
<rect x="628.5" y="607" width="184" height="59" rx="29.5" fill="#BB133E"/>
<g clip-path="url(#clip1_1_12)">
<path d="M670.1 626L660.5 639.125H666.9V647L676.5 633.875H670.1V626Z" fill="white"/>
</g>
<path d="M686.626 642L691.432 629.274H693.898L698.686 642H696.634L695.698 639.444H689.614L688.678 642H686.626ZM690.244 637.734H695.068L692.656 631.092L690.244 637.734ZM699.939 645.456V632.514H701.703L701.793 633.864C702.129 633.372 702.567 633.006 703.107 632.766C703.647 632.514 704.235 632.388 704.871 632.388C705.819 632.388 706.599 632.604 707.211 633.036C707.823 633.456 708.279 634.038 708.579 634.782C708.879 635.514 709.029 636.336 709.029 637.248C709.029 638.184 708.873 639.018 708.561 639.75C708.261 640.482 707.793 641.058 707.157 641.478C706.533 641.898 705.741 642.108 704.781 642.108C704.325 642.108 703.905 642.06 703.521 641.964C703.149 641.868 702.819 641.73 702.531 641.55C702.255 641.358 702.009 641.136 701.793 640.884V645.456H699.939ZM704.547 640.452C705.195 640.452 705.711 640.308 706.095 640.02C706.479 639.72 706.755 639.33 706.923 638.85C707.091 638.37 707.175 637.848 707.175 637.284C707.175 636.696 707.085 636.162 706.905 635.682C706.737 635.19 706.455 634.8 706.059 634.512C705.675 634.212 705.159 634.062 704.511 634.062C703.923 634.062 703.425 634.212 703.017 634.512C702.609 634.8 702.297 635.19 702.081 635.682C701.877 636.174 701.775 636.708 701.775 637.284C701.775 637.872 701.871 638.412 702.063 638.904C702.267 639.384 702.573 639.762 702.981 640.038C703.401 640.314 703.923 640.452 704.547 640.452ZM710.943 645.456V632.514H712.707L712.797 633.864C713.133 633.372 713.571 633.006 714.111 632.766C714.651 632.514 715.239 632.388 715.875 632.388C716.823 632.388 717.603 632.604 718.215 633.036C718.827 633.456 719.283 634.038 719.583 634.782C719.883 635.514 720.033 636.336 720.033 637.248C720.033 638.184 719.877 639.018 719.565 639.75C719.265 640.482 718.797 641.058 718.161 641.478C717.537 641.898 716.745 642.108 715.785 642.108C715.329 642.108 714.909 642.06 714.525 641.964C714.153 641.868 713.823 641.73 713.535 641.55C713.259 641.358 713.013 641.136 712.797 640.884V645.456H710.943ZM715.551 640.452C716.199 640.452 716.715 640.308 717.099 640.02C717.483 639.72 717.759 639.33 717.927 638.85C718.095 638.37 718.179 637.848 718.179 637.284C718.179 636.696 718.089 636.162 717.909 635.682C717.741 635.19 717.459 634.8 717.063 634.512C716.679 634.212 716.163 634.062 715.515 634.062C714.927 634.062 714.429 634.212 714.021 634.512C713.613 634.8 713.301 635.19 713.085 635.682C712.881 636.174 712.779 636.708 712.779 637.284C712.779 637.872 712.875 638.412 713.067 638.904C713.271 639.384 713.577 639.762 713.985 640.038C714.405 640.314 714.927 640.452 715.551 640.452ZM721.947 642V629.274H723.801V642H721.947ZM730.271 646.284C729.539 646.284 728.831 646.182 728.147 645.978C727.463 645.786 726.839 645.444 726.275 644.952L727.013 643.476C727.445 643.824 727.919 644.1 728.435 644.304C728.963 644.508 729.521 644.61 730.109 644.61C731.081 644.61 731.783 644.346 732.215 643.818C732.647 643.29 732.863 642.6 732.863 641.748V640.83C732.647 641.13 732.377 641.382 732.053 641.586C731.741 641.778 731.393 641.916 731.009 642C730.625 642.096 730.235 642.144 729.839 642.144C728.915 642.144 728.177 641.958 727.625 641.586C727.085 641.202 726.695 640.68 726.455 640.02C726.227 639.36 726.113 638.598 726.113 637.734V632.514H727.985V637.284C727.985 637.668 728.009 638.052 728.057 638.436C728.105 638.82 728.207 639.168 728.363 639.48C728.519 639.78 728.747 640.026 729.047 640.218C729.347 640.398 729.755 640.488 730.271 640.488C730.919 640.488 731.429 640.332 731.801 640.02C732.173 639.696 732.437 639.276 732.593 638.76C732.749 638.232 732.827 637.662 732.827 637.05V632.514H734.681V641.55C734.681 642.294 734.591 642.96 734.411 643.548C734.243 644.136 733.973 644.634 733.601 645.042C733.241 645.45 732.785 645.756 732.233 645.96C731.693 646.176 731.039 646.284 730.271 646.284ZM742.24 642V629.274H744.454L750.844 639.21V629.274H752.734V642H750.574L744.148 632.118V642H742.24ZM759.593 642.108C758.609 642.108 757.775 641.91 757.091 641.514C756.407 641.106 755.885 640.536 755.525 639.804C755.177 639.072 755.003 638.226 755.003 637.266C755.003 636.294 755.183 635.448 755.543 634.728C755.903 633.996 756.425 633.426 757.109 633.018C757.793 632.598 758.627 632.388 759.611 632.388C760.595 632.388 761.429 632.598 762.113 633.018C762.797 633.426 763.313 633.996 763.661 634.728C764.009 635.46 764.183 636.312 764.183 637.284C764.183 638.232 764.003 639.072 763.643 639.804C763.295 640.536 762.779 641.106 762.095 641.514C761.423 641.91 760.589 642.108 759.593 642.108ZM759.593 640.452C760.241 640.452 760.763 640.308 761.159 640.02C761.567 639.732 761.867 639.348 762.059 638.868C762.251 638.376 762.347 637.842 762.347 637.266C762.347 636.69 762.251 636.162 762.059 635.682C761.867 635.202 761.567 634.818 761.159 634.53C760.763 634.23 760.241 634.08 759.593 634.08C758.957 634.08 758.435 634.23 758.027 634.53C757.619 634.818 757.319 635.202 757.127 635.682C756.947 636.162 756.857 636.69 756.857 637.266C756.857 637.854 756.947 638.388 757.127 638.868C757.319 639.348 757.619 639.732 758.027 640.02C758.435 640.308 758.957 640.452 759.593 640.452ZM768.065 642L765.113 632.514H767.183L769.271 640.056L771.467 632.514H773.789L775.985 640.056L778.037 632.514H780.107L777.155 642H774.797L772.601 634.746L770.423 642H768.065Z" fill="white"/>
</g>
<defs>
<filter id="filter0_f_1_12" x="-571.672" y="-493.672" width="1208.34" height="1208.34" filterUnits="userSpaceOnUse" color-interpolation-filters="sRGB">
<feFlood flood-opacity="0" result="BackgroundImageFix"/>
<feBlend mode="normal" in="SourceGraphic" in2="BackgroundImageFix" result="shape"/>
<feGaussianBlur stdDeviation="137.836" result="effect1_foregroundBlur_1_12"/>
</filter>
<filter id="filter1_f_1_12" x="358" y="-393" width="1942" height="1942" filterUnits="userSpaceOnUse" color-interpolation-filters="sRGB">
<feFlood flood-opacity="0" result="BackgroundImageFix"/>
<feBlend mode="normal" in="SourceGraphic" in2="BackgroundImageFix" result="shape"/>
<feGaussianBlur stdDeviation="266" result="effect1_foregroundBlur_1_12"/>
</filter>
<clipPath id="clip0_1_12">
<rect width="1440" height="878" fill="white"/>
</clipPath>
<clipPath id="clip1_1_12">
<rect width="16" height="21" fill="white" transform="translate(660.5 626)"/>
</clipPath>
</defs>
</svg>
