<svg width="56" height="56" viewBox="0 0 56 56" fill="none" xmlns="http://www.w3.org/2000/svg">
<rect width="56" height="56" rx="28" fill="#0053C2"/>
<path d="M25.7828 25.8401C24.3428 25.8401 23.6228 26.8801 23.4628 27.5201C23.3028 28.1601 23.3028 30.4801 23.3988 31.4401C23.7188 32.6401 24.5188 33.1361 25.3028 33.2961C26.0228 33.3601 29.0628 33.3361 29.9428 33.3361C31.2228 33.3601 32.1828 32.8801 32.5828 31.4401C32.6628 30.9601 32.7428 28.3201 32.5428 27.5201C32.1188 26.2401 31.0628 25.8401 30.2628 25.8401H25.7828Z" stroke="white" stroke-width="1.5" stroke-linecap="round"/>
<path d="M25.6667 25.278C25.6667 25.198 25.6776 24.7374 25.6795 24.158C25.6812 23.6285 25.6347 23.118 25.8875 22.6508C26.8347 20.766 29.5547 20.958 30.2267 22.878C30.3431 23.1941 30.3502 23.6952 30.3467 24.158C30.3423 24.7493 30.3547 25.278 30.3547 25.278" stroke="white" stroke-width="1.5" stroke-linecap="round"/>
<path d="M40 26.9111V23.0405C40 20.8538 40 19.7605 39.4612 19.0471C38.9224 18.3338 37.7041 17.9875 35.2676 17.2949C33.6029 16.8217 32.1355 16.2516 30.9631 15.7311C29.3645 15.0215 28.5653 14.6667 28 14.6667C27.4347 14.6667 26.6355 15.0215 25.0369 15.7311C23.8645 16.2516 22.3971 16.8217 20.7324 17.2949C18.2959 17.9875 17.0776 18.3338 16.5388 19.0471C16 19.7605 16 20.8538 16 23.0405V26.9111C16 34.4114 22.7504 38.9114 26.1253 40.6926C26.9348 41.1198 27.3395 41.3334 28 41.3334C28.6605 41.3334 29.0652 41.1198 29.8747 40.6926C33.2496 38.9114 40 34.4114 40 26.9111Z" stroke="white" stroke-width="1.5" stroke-linecap="round"/>
</svg>
