<svg width="25" height="24" viewBox="0 0 25 24" fill="none" xmlns="http://www.w3.org/2000/svg">
<path d="M14.5 3.5H10.5C6.72876 3.5 4.84315 3.5 3.67157 4.67157C2.5 5.84315 2.5 7.72876 2.5 11.5V12.5C2.5 16.2712 2.5 18.1569 3.67157 19.3284C4.84315 20.5 6.72876 20.5 10.5 20.5H14.5C18.2712 20.5 20.1569 20.5 21.3284 19.3284C22.5 18.1569 22.5 16.2712 22.5 12.5V11.5C22.5 7.72876 22.5 5.84315 21.3284 4.67157C20.1569 3.5 18.2712 3.5 14.5 3.5Z" stroke="white" stroke-width="1.5" stroke-linejoin="round"/>
<path d="M5.5 16C6.53569 13.4189 10.3962 13.2491 11.5 16" stroke="white" stroke-width="1.5" stroke-linecap="round"/>
<path d="M10.25 9.75C10.25 10.7165 9.4665 11.5 8.5 11.5C7.5335 11.5 6.75 10.7165 6.75 9.75C6.75 8.7835 7.5335 8 8.5 8C9.4665 8 10.25 8.7835 10.25 9.75Z" stroke="white" stroke-width="1.5"/>
<path d="M14.5 8.5H19.5M14.5 12H19.5M14.5 15.5H17" stroke="white" stroke-width="1.5" stroke-linecap="round" stroke-linejoin="round"/>
</svg>
