<svg width="56" height="56" viewBox="0 0 56 56" fill="none" xmlns="http://www.w3.org/2000/svg">
<rect width="56" height="56" rx="28" fill="#000819"/>
<path d="M22.6666 38.6667C21.9812 39.5965 21.7032 39.9201 21.1396 39.9905C20.576 40.0609 20.1864 39.7383 19.4071 39.0929C16.5081 36.6924 14.6666 33.1004 14.6666 29.0863C14.6666 21.8589 20.6362 16 28 16C35.3637 16 41.3333 21.8589 41.3333 29.0863C41.3333 33.1004 39.4918 36.6924 36.5928 39.0929C35.8136 39.7383 35.424 40.0609 34.8604 39.9905C34.2968 39.9201 34.0186 39.5965 33.3333 38.6667" stroke="white" stroke-width="1.5" stroke-linecap="round" stroke-linejoin="round"/>
<path d="M30 26.0001L36 18.6667" stroke="white" stroke-width="1.5" stroke-linecap="round" stroke-linejoin="round"/>
<path d="M28 30C29.1046 30 30 29.1046 30 28C30 26.8954 29.1046 26 28 26C26.8954 26 26 26.8954 26 28C26 29.1046 26.8954 30 28 30Z" stroke="white" stroke-width="1.5" stroke-linecap="round" stroke-linejoin="round"/>
</svg>
