<svg width="56" height="56" viewBox="0 0 56 56" fill="none" xmlns="http://www.w3.org/2000/svg">
<rect width="56" height="56" rx="28" fill="#002664"/>
<path d="M41.3333 28.0001C41.3333 20.6363 35.3637 14.6667 28 14.6667C20.6362 14.6667 14.6666 20.6363 14.6666 28.0001C14.6666 35.3638 20.6362 41.3334 28 41.3334C35.3637 41.3334 41.3333 35.3638 41.3333 28.0001Z" stroke="white" stroke-width="1.5"/>
<path d="M38.6667 19.5987C37.4204 19.6886 35.8242 20.1711 34.7172 21.6038C32.718 24.1916 30.7187 24.4075 29.3859 23.5449C27.3866 22.251 29.0667 20.1552 26.7202 19.0163C25.1909 18.274 24.9777 16.254 25.8288 14.6667" stroke="white" stroke-width="1.5" stroke-linejoin="round"/>
<path d="M14.6666 26.6667C15.6833 27.5495 17.1072 28.3577 18.7849 28.3577C22.2512 28.3577 22.9445 29.0199 22.9445 31.6691C22.9445 34.3183 22.9445 34.3183 23.6377 36.3051C24.0886 37.5975 24.2463 38.8899 23.3474 40.0001" stroke="white" stroke-width="1.5" stroke-linejoin="round"/>
<path d="M41.3333 29.9363C40.1505 29.2547 38.6666 28.9743 37.1645 30.0539C34.2902 32.1196 32.3085 30.4079 31.4158 32.1184C30.102 34.6366 34.7942 35.428 30.6666 41.3332" stroke="white" stroke-width="1.5" stroke-linejoin="round"/>
</svg>
