<svg width="56" height="56" viewBox="0 0 56 56" fill="none" xmlns="http://www.w3.org/2000/svg">
<rect width="56" height="56" rx="28" fill="#0053C2"/>
<path d="M33.3334 14.6667V20.0001M22.6667 14.6667V20.0001" stroke="white" stroke-width="1.5" stroke-linecap="round" stroke-linejoin="round"/>
<path d="M29.3333 17.3333H26.6667C21.6383 17.3333 19.1242 17.3333 17.5621 18.8953C16 20.4575 16 22.9716 16 27.9999V30.6666C16 35.6949 16 38.2091 17.5621 39.7711C19.1242 41.3333 21.6383 41.3333 26.6667 41.3333H29.3333C34.3616 41.3333 36.8759 41.3333 38.4379 39.7711C40 38.2091 40 35.6949 40 30.6666V27.9999C40 22.9716 40 20.4575 38.4379 18.8953C36.8759 17.3333 34.3616 17.3333 29.3333 17.3333Z" stroke="white" stroke-width="1.5" stroke-linecap="round" stroke-linejoin="round"/>
<path d="M16 25.3333H40" stroke="white" stroke-width="1.5" stroke-linecap="round" stroke-linejoin="round"/>
<path d="M27.994 30.6667H28.006M27.994 36.0001H28.006M33.3214 30.6667H33.3334M22.6667 30.6667H22.6786M22.6667 36.0001H22.6786" stroke="white" stroke-width="1.5" stroke-linecap="round" stroke-linejoin="round"/>
</svg>
