<svg width="56" height="56" viewBox="0 0 56 56" fill="none" xmlns="http://www.w3.org/2000/svg">
<rect width="56" height="56" rx="28" fill="#BB133E"/>
<path d="M33.1556 17.0405C34.3908 16.0425 35.7743 15.9819 37.2859 16.0031C38.0677 16.0141 38.4587 16.0196 38.7723 16.1412C39.2699 16.3341 39.6659 16.7302 39.8588 17.2278C39.9804 17.5414 39.9859 17.9323 39.9969 18.7141C40.0181 20.2257 39.9575 21.6092 38.9595 22.8444C38.1191 23.8845 36.6745 24.428 35.9795 25.5761C35.4488 26.4527 35.696 27.3604 35.924 28.2945L37.6304 35.2883C37.9705 36.682 37.7117 37.5753 36.7372 38.5499C36.2187 39.0684 35.7873 39.0421 35.3668 38.372L30.2169 30.1665L27.7575 32.1215C26.8657 32.8304 26.4199 33.1848 26.1856 33.6836C25.6368 34.8517 25.9852 36.6063 26.0029 37.8728C26.0128 38.5728 25.4079 39.9525 24.5519 39.9991C24.0234 40.0279 23.8438 39.3957 23.6731 39.0077L22.0298 35.2725C21.6368 34.3793 21.6207 34.3632 20.7274 33.9703L16.9922 32.3269C16.6042 32.1563 15.9722 31.9765 16.0009 31.4481C16.0475 30.5921 17.4271 29.9872 18.1271 29.9971C19.3938 30.0148 21.1483 30.3632 22.3165 29.8144C22.8152 29.5801 23.1697 29.1343 23.8785 28.2425L25.8335 25.7831L17.628 20.6332C16.9579 20.2126 16.9316 19.7813 17.4501 19.2629C18.4247 18.2883 19.318 18.0295 20.7117 18.3696L27.7055 20.076C28.6396 20.304 29.5473 20.5512 30.4239 20.0205C31.572 19.3255 32.1155 17.881 33.1556 17.0405Z" stroke="white" stroke-width="1.5" stroke-linecap="round" stroke-linejoin="round"/>
</svg>
