<svg width="56" height="56" viewBox="0 0 56 56" fill="none" xmlns="http://www.w3.org/2000/svg">
<rect width="56" height="56" rx="28" fill="#BB133E"/>
<path d="M38.3271 29.3334C39.3816 27.8217 40 25.983 40 24.0001C40 18.8454 35.8213 14.6667 30.6667 14.6667C25.512 14.6667 21.3333 18.8454 21.3333 24.0001C21.3333 25.4315 21.6556 26.7877 22.2315 28.0001" stroke="white" stroke-width="1.5" stroke-linecap="round" stroke-linejoin="round"/>
<path d="M30.6667 20.0001C29.1939 20.0001 28 20.8955 28 22.0001C28 23.1047 29.1939 24.0001 30.6667 24.0001C32.1395 24.0001 33.3333 24.8955 33.3333 26.0001C33.3333 27.1046 32.1395 28.0001 30.6667 28.0001M30.6667 20.0001C31.8277 20.0001 32.8155 20.5566 33.1816 21.3334M30.6667 20.0001V18.6667M30.6667 28.0001C29.5056 28.0001 28.5179 27.4435 28.1517 26.6667M30.6667 28.0001V29.3334" stroke="white" stroke-width="1.5" stroke-linecap="round"/>
<path d="M16 30.6667H19.1931C19.5853 30.6667 19.9721 30.7551 20.3229 30.9249L23.0455 32.2422C23.3963 32.4119 23.7831 32.5002 24.1753 32.5002H25.5655C26.91 32.5002 28 33.555 28 34.8561C28 34.9086 27.964 34.9549 27.9117 34.9693L24.5238 35.9061C23.9161 36.0741 23.2653 36.0155 22.7 35.7419L19.7895 34.3338M28 34.0001L34.1237 32.1186C35.2093 31.7803 36.3828 32.1814 37.0628 33.1231C37.5545 33.8039 37.3543 34.779 36.638 35.1923L26.6172 40.9741C25.9799 41.3418 25.2279 41.4315 24.5269 41.2235L16 38.6933" stroke="white" stroke-width="1.5" stroke-linecap="round" stroke-linejoin="round"/>
</svg>
