<svg width="153" height="153" viewBox="0 0 153 153" fill="none" xmlns="http://www.w3.org/2000/svg">
<g clip-path="url(#clip0_1_1310)">
<path d="M61.2004 117.3C59.1782 117.3 57.23 116.499 55.7918 115.059L35.3918 94.6585C32.4032 91.6725 32.4032 86.8275 35.3918 83.8414C38.3779 80.8528 43.2229 80.8528 46.2089 83.8414L60.3716 98.0041L100.978 43.86C103.518 40.4787 108.317 39.7978 111.688 42.33C115.069 44.8647 115.755 49.6612 113.22 53.04L67.3204 114.24C65.9918 116.015 63.9544 117.124 61.7435 117.28C61.5625 117.292 61.3789 117.3 61.2004 117.3Z" fill="#0053C2"/>
<path d="M15.3 79.05H2.55C1.13985 79.05 0 77.9102 0 76.5C0 75.0899 1.13985 73.95 2.55 73.95H15.3C16.7101 73.95 17.85 75.0899 17.85 76.5C17.85 77.9102 16.7101 79.05 15.3 79.05Z" fill="#EDF3FB"/>
<path d="M12.4628 116.025C11.5805 116.025 10.7237 115.569 10.2519 114.75C9.54811 113.529 9.96631 111.971 11.1852 111.267L22.2267 104.892C23.4431 104.19 25.0037 104.604 25.71 105.825C26.4138 107.046 25.9956 108.605 24.7767 109.308L13.7352 115.683C13.3349 115.915 12.8963 116.025 12.4628 116.025Z" fill="#EDF3FB"/>
<path d="M39.5218 143.091C39.0883 143.091 38.6497 142.981 38.2494 142.749C37.0279 142.045 36.6097 140.485 37.3161 139.266L43.6911 128.224C44.3975 127.003 45.9555 126.585 47.1744 127.291C48.3933 127.997 48.814 129.555 48.1077 130.774L41.7327 141.816C41.2584 142.632 40.4041 143.091 39.5218 143.091Z" fill="#EDF3FB"/>
<path d="M76.4992 153C75.0891 153 73.9492 151.86 73.9492 150.45V137.7C73.9492 136.29 75.0891 135.15 76.4992 135.15C77.9094 135.15 79.0492 136.29 79.0492 137.7V150.45C79.0492 151.86 77.9094 153 76.4992 153Z" fill="#EDF3FB"/>
<path d="M113.478 143.091C112.596 143.091 111.739 142.634 111.268 141.816L104.893 130.774C104.189 129.553 104.607 127.995 105.826 127.291C107.04 126.587 108.603 127.003 109.309 128.224L115.684 139.266C116.388 140.487 115.97 142.045 114.751 142.749C114.35 142.981 113.912 143.091 113.478 143.091Z" fill="#EDF3FB"/>
<path d="M140.538 116.025C140.104 116.025 139.666 115.915 139.266 115.683L128.224 109.308C127.003 108.604 126.584 107.044 127.291 105.825C127.995 104.604 129.558 104.188 130.774 104.892L141.816 111.267C143.037 111.97 143.455 113.531 142.749 114.75C142.275 115.569 141.42 116.025 140.538 116.025Z" fill="#EDF3FB"/>
<path d="M150.45 79.05H137.7C136.29 79.05 135.15 77.9102 135.15 76.5C135.15 75.0899 136.29 73.95 137.7 73.95H150.45C151.861 73.95 153 75.0899 153 76.5C153 77.9102 151.861 79.05 150.45 79.05Z" fill="#EDF3FB"/>
<path d="M129.502 48.45C128.62 48.45 127.763 47.9936 127.291 47.175C126.587 45.9536 127.005 44.3955 128.224 43.6917L139.266 37.3167C140.482 36.6104 142.045 37.0286 142.749 38.25C143.453 39.4715 143.035 41.0295 141.816 41.7333L130.774 48.1083C130.374 48.3404 129.935 48.45 129.502 48.45Z" fill="#EDF3FB"/>
<path d="M107.096 26.0508C106.663 26.0508 106.224 25.9411 105.824 25.7091C104.602 25.0053 104.184 23.4447 104.89 22.2258L111.265 11.1843C111.969 9.96283 113.53 9.54462 114.749 10.251C115.968 10.9573 116.388 12.5154 115.682 13.7343L109.307 24.7758C108.833 25.5918 107.978 26.0508 107.096 26.0508Z" fill="#EDF3FB"/>
<path d="M76.4992 17.85C75.0891 17.85 73.9492 16.7101 73.9492 15.3V2.55C73.9492 1.13985 75.0891 0 76.4992 0C77.9094 0 79.0492 1.13985 79.0492 2.55V15.3C79.0492 16.7101 77.9094 17.85 76.4992 17.85Z" fill="#EDF3FB"/>
<path d="M45.9022 26.0508C45.0199 26.0508 44.1631 25.5944 43.6914 24.7758L37.3164 13.7343C36.6126 12.5129 37.0308 10.9548 38.2497 10.251C39.466 9.5472 41.0292 9.96285 41.733 11.1843L48.108 22.2258C48.8118 23.4473 48.3936 25.0053 47.1747 25.7091C46.7743 25.9412 46.3357 26.0508 45.9022 26.0508Z" fill="#EDF3FB"/>
<path d="M23.4969 48.45C23.0634 48.45 22.6248 48.3403 22.2245 48.1083L11.183 41.7333C9.96154 41.0295 9.54334 39.4689 10.2497 38.25C10.9535 37.0285 12.5141 36.6078 13.733 37.3167L24.7745 43.6917C25.9959 44.3955 26.4141 45.9561 25.7078 47.175C25.2335 47.9935 24.3792 48.45 23.4969 48.45Z" fill="#EDF3FB"/>
</g>
<defs>
<clipPath id="clip0_1_1310">
<rect width="153" height="153" fill="white"/>
</clipPath>
</defs>
</svg>
